<svg xmlns="http://www.w3.org/2000/svg" id="Layer_2" data-name="Layer 2" viewBox="0 0 1378.7 932.8"><defs><style>.cls-1{fill:#441d52}.cls-2{fill:#6c377a}.cls-3{fill:#fff}</style></defs><g id="Layer_1-2" data-name="Layer 1"><path d="M443.3 913.2c-23.8 27.4-72.2 25.7-91.7-3.3a58 58 0 0 1 1.5-66.3c21.5-28.5 69-28.1 90.8-1.1 15.2 19 15.3 52.3-.6 70.7m-57.8-2.8c12.4 7.5 28.2 3 35.8-9 13.4-21 6.1-56-17-59.8-10.2-1.7-19 2-25.6 9.2-12.6 13.6-13.3 47.4 6.8 59.6M640.9 908.5c-18.3 27.9-61.4 32.2-86.8 10.7a55 55 0 0 1-17.5-48.4 52 52 0 0 1 31.7-43.4c16.7-7 36.4-7 52.6 1.2a51 51 0 0 1 28.5 47.9c-.2 11.4-2 22.2-8.5 32m-34 1.2c11.8-7.6 15.7-20.2 15.5-33.3-.3-13.9-5.7-27.6-19-33.2a27.4 27.4 0 0 0-34 12.5c-7.8 13.7-8 31 0 44.4s24.5 18.2 37.5 9.6M258.4 907.2c14.2 11.4 38.1 5.3 53.7-2.1l8.2 15a75 75 0 0 1-44.2 12.6 53 53 0 0 1-42.4-17.8 60 60 0 0 1-11.6-45.4 53.6 53.6 0 0 1 60.7-46.7c32.4 3.6 45.4 29.7 42 60.5l-75.5.2c-.9 9 2.1 18 9 23.7m40.5-40.1c.4-8.2-2-15.3-7.3-20a25 25 0 0 0-28.7-3.5 25 25 0 0 0-13.6 23.7zM502.5 932.6c-13 .2-23.4-7.7-24.8-20.7q-1.2-9-1.3-18.5c.2-7.3 1.5-14.4.2-21.5-1-5.3.3-10.1.3-15.5l.2-75.4c8.6-1.6 16.3-3 25.8-3.8v124.1c0 6.3 4.3 11 10.3 10.1l8.2-1.2 1.9 19a46 46 0 0 1-20.7 3.4Z" class="cls-2"/><path d="m315.9 349 25.7-1 43-1q12-.3 24 0l49.2 1 24.3.7 21 1 22 1 18 1 25.1 1.1 130.9 7.2 58.6 2.2c30.7 1.2 60.5 1.1 91.4.2 49.7-1.6 117.4-9.5 162.7-30.1 31.8-14.6 63.8-37.4 77.4-70.7 12.5-30.8 6-66.6-20.8-86.4a42 42 0 0 0-56.5 5 39 39 0 0 0-2.3 51.6 7 7 0 0 1 .4 7.2c-5.2 8.2-19-2.3-25.2-10.4a54 54 0 0 1-8-49.8 70 70 0 0 1 58.7-48c42.3-5 81.5 23.5 94.9 63.7a33 33 0 0 0-14.3 32.9c1.8 11 7.3 20.1 15.3 28a116 116 0 0 1-16.9 41.8c-21.7 33-53 57.9-89.6 72.7a309 309 0 0 1-48 15.4c-39.3 9-78.6 13.2-119 14.6-31.5 1.1-62.1 1.1-93.5 0l-30.5-1-30.7-1.3-39.2-2.3-125.8-8-56.5-2.6-27-1-43.3-1c-58.1-1.2-115.6.2-173.6 4a691 691 0 0 0-65.5 7.7C108.6 404.8 50.6 425 0 467.8c0-5.9 4.7-8.8 8-12.5a260 260 0 0 1 79.7-59c64.7-31.7 156.5-44.6 228.2-47.3" class="cls-1"/><path d="m378.2 288.2 28.6-1c71.4-2.5 140.1 2.2 212.2 0 57.7-1.9 106.6-10.9 159.3-34.4a274 274 0 0 0 37.4-20.8 163 163 0 0 0 55-58 94 94 0 0 0 4.6-83.4c-12.1-27.2-33.7-53-65.1-55A75 75 0 0 0 756.8 52a57 57 0 0 0-20.1 56.8 60 60 0 0 0 28 36c3 1.8 2.5 5.7 1.6 8.2-3.1 8.6-14.8 7-22.5 3.5a68 68 0 0 1-38.1-75.9 99 99 0 0 1 84.8-79.5c74.5-10 130.3 51.6 133 122.8A154 154 0 0 1 877 237.2a224 224 0 0 1-39.1 32 283 283 0 0 1-75.4 33.4 455 455 0 0 1-107.7 17.2c-36 1.5-71.3.7-107.2 0l-43.2-1-30.3-.7-22-1-97 .3-48.5 2.5a666 666 0 0 0-145.9 23.8 184 184 0 0 1 46-24.5c48.1-19.3 119.5-29.2 171.5-31M1216.7 334.6a17 17 0 0 1-24.2-4.9l-61.1-93.5c-5.5-8.4-1.3-20.7 6.6-26l50.2-33.7 105-68c8-5.1 16.7-3.4 22.1 5.2l61.2 97.4c3.6 5.8 3 16.6-3.1 20.7l-113.8 75-20.2 13z" class="cls-2"/><path d="m445.6 184.4-44.7 5.5-67.3-41c-6-3.6-9.4-12.7-5.6-18.8l36.4-58.3c4-6.5 12.1-7.3 18.3-3.6l95.4 56c9 5.1 12 14 6.4 23L463 182.4c-5.7 1.3-11 1.3-17.3 2" class="cls-2"/><path d="M507.5 200c47.7-2.4 121.3 0 155.8-39.4q10.4-12 10.2-28.2c0-17-9.1-33-25-39.1a27 27 0 0 0-30.2 7.3 37 37 0 0 0-9 18.9 22.5 22.5 0 0 0 14.5 24.5l9.3 3.6c1.1.4 1.1 2.2.8 3.1-1.2 3.7-15.2 6.1-26.2-2a35 35 0 0 1-11.8-38.7 50 50 0 0 1 24.3-30.1 45 45 0 0 1 50 7.2 63.5 63.5 0 0 1 13.8 79.5 79 79 0 0 1-28.5 29.1c-25.9 15.7-72.5 24.8-101.6 25.3l-50.3.7c-41.7.7-82.4 4.2-123.4 12.6-29 5.9-55.7 15.2-82.2 29.3 4.3-7.3 10.7-11.5 17.2-16 17-12 35.3-20.3 55.4-26.5 39-12 79-18.2 119.6-20.3z" class="cls-2"/><path d="M509.8 260.9c-17.6-1.3-34.2-2.3-51.3-6-4.7-1.1-9.7-1.4-13.9-5l101.6-.4c37.8-.1 74.7-4.8 111.8-12.4a493 493 0 0 0 87.3-27.3c21.4-8.7 40.7-20 57.6-35.5 19.8-18 33.6-45.5 15.6-70.1q-2.1-3-.6-5.7c3.8-6.5 20.2 1.7 26.6 19.5 10.3 28.6-6.6 57-27.1 77-41 39.6-97 56-152.2 65.4-9.5 1.6-18 2-27.6 2.5-42.8 2.4-85 1.1-127.8-2M787.9 338.8c-5-.2-65.6-1.7-64.7-5.7q.3-1.1 2-1.4l48.7-3.3c29.5-2.1 57.8-5.4 87.2-9.9a651 651 0 0 0 109.3-24.7c33.9-11.3 81.4-33.8 88.7-72.5.2-1.1 1.9-1.7 2.6-1.7 6-.3 9.1 41.6-33 71.4a203 203 0 0 1-54 27.7 399 399 0 0 1-99 18.2c-29.6 2-58.2 2.8-87.8 1.9Z" class="cls-2"/><path d="M622.6 671.3a48.5 48.5 0 0 0 50.9 24.5c38.9-7.6 60-51.1 46.1-88.8-19.6-53-81.6-85.7-132.9-101.5-26.2-8.1-52-14.6-79.4-18.6-39.1-5.8-77.5-9-117-11l-76.3-4.1-28.8-1.2-63.7-3.7c-37.2-2.1-84-6.4-120.2-16.1 5.7-3 12-3.1 18.5-3.8q19.5-2.2 39.3-3.5l29.2-2c99.4-6.5 262.7-2 360.7 18.1 25.9 5.3 50.5 11 75 20 46 16.7 90.2 42.8 117.2 84.6a124 124 0 0 1 20.7 54.2 108 108 0 0 1-36.3 92.2 97 97 0 0 1-56.2 22.2c-41.4 1.8-80.3-27-85.3-69.3a66 66 0 0 1 51-73.2c9.8-2.2 21.5 1.7 20.5 9.4-1 8.7-16 1.6-30.8 22.8a46 46 0 0 0-2.1 48.8Z" class="cls-1"/><path d="M375.6 685.2c-8 5.6-17.3 3.8-22.7-3.9L308 617.7l-33-46.1a19 19 0 0 1 1.3-24l53-37c8.3-5.7 19.4-6.1 26 3.2l62 88.2 15 21.2c6 8.5 3.3 19.6-5 25.5zM434.6 420.2l-28.5-1.7-24-1-20-1.1q-16-1-32-.8c-5.1.1-9.8-1.3-15-1.5 15.6-3.7 40.4-4.7 58-5.8l14-.8 14-1 22-1 17.1-1a605 605 0 0 1 64.4.2l18.4 1a609 609 0 0 1 119.3 16.7 364 364 0 0 1 134.4 65.8l-22 18.7a343 343 0 0 0-122.4-58 709 709 0 0 0-105.8-20l-60.8-6.5z" class="cls-2"/><path d="M1237.7 584c-4.6 9.2-16.7 14.7-26.3 9.9L1063.5 520l-15-7.9c-12-6.3-16.6-19.7-10.2-31.6l23-43 24.6-48.3c5-9.8 15.5-13.8 26-9.3 8.6 3.8 16.5 8.1 25.5 12.5l137.3 67.5c8.5 4.1 14.4 12.6 13 22-1 6.3-4.4 11.5-7.1 17zM878.8 682.1l-49.6-51.8-66.4-69.5c-7.7-8-8.7-20-2-29 3.7-5.2 9-8.7 13.8-13l25.5-22.4 38.1-33.8a23.6 23.6 0 0 1 33.4 1.6L985 586.4c8.5 9.1 5 22-3.1 29.7l-38.2 35.8-34 31.8c-9.2 8.6-22 7.7-31-1.6Z" class="cls-1"/><path d="M1029.8 448.5c-6.6-2-12-5.6-18.6-8.3a294 294 0 0 0-76.7-19.4c12.9-5 25.2-5.9 38.3-6.8a196 196 0 0 1 71.4 7.8c-4.4 9.6-8.5 17.6-14.4 26.7" class="cls-2"/><path d="M904.7 910.2c-21.7 28.8-70.7 30.2-93.7 1a58 58 0 0 1 6.7-77.2 63 63 0 0 1 48.2-13c31.4 4 50.7 27.1 49.1 59.3-.5 10.7-3.6 21-10.3 30m-22-14.7a46 46 0 0 0 .6-37.7c-4.3-10.3-14.2-17-25-17.3s-20.6 5.8-25.6 15.5a44 44 0 0 0 1 42.2c5.4 9 15.5 14.3 25.2 13.6a28 28 0 0 0 23.8-16.3M1018 913.9a31 31 0 0 1 .4-29c10.4-20.4 44.3-21 64.3-16.9.6-10.2-.1-26.5-15.4-27.4-13-.9-25.3 2.8-37.8 9.2L1020 833a86 86 0 0 1 56-12.2c16.8 2.1 33.1 14.7 33.3 32.9l.6 76.2-24.5.2-1.7-10.4c-18.8 17.6-54 17.4-65.8-6Zm64.7-20.2.3-10.3-10.3-1c-9.2-.8-24.1-1-30 7.7-3.3 5-2.6 14.1 2 18 6.5 5.6 15.3 4.7 23 3 8.3-2 14.7-8.1 15-17.4M700.1 864l-.3 66-27 .1a141 141 0 0 0 .5-28.3c-1.2-16 0-30 0-46.7v-16.7c0-5.5 1.1-10.6-.5-16.2h22.9l2.7 13.6c14.1-21.7 61.2-20.6 71.8 2.1a51 51 0 0 1 5.4 20.6l.1 71.7-26.7-.2-.5-61.4c0-7-1.9-14.8-5.5-20.5-6.4-10.1-27.3-8.6-35.9-.5-3.6 3.5-7 10.4-7 16.3ZM1220 901.4c-2.7 27-39.8 35.2-61.7 29.5a81 81 0 0 1-28.2-12.6c3.1-7.3 6.4-13.3 10.3-19.6 13 11 34.3 18.1 49.2 10 4.6-2.5 6.4-10.7 2.3-14.5-13-12.2-47.3-9.2-54.7-31.4a29 29 0 0 1 3.5-26c13.7-21 54.6-20.5 75-5.8l-8.2 17.9c-11.9-9-47-14.7-45.8 2.7 1.4 19.3 62.4 7.5 58.2 49.8ZM995.1 907.1l8 18.9a56 56 0 0 1-30.3 6.3c-14.2 0-27.5-9.3-27.6-24.5l-.4-66.6h-18v-19h18.9l.8-15q.5-6.7 2-13H972v28l29 .2-.2 18.7-28.9.1.2 57.5c0 4.3 2.7 9.4 6.4 10.8 5.5 2 11.4.4 16.7-2.4Z" class="cls-3"/></g></svg>