<?xml version="1.0" encoding="UTF-8"?>
<svg id="Layer_2" data-name="Layer 2" xmlns="http://www.w3.org/2000/svg" viewBox="0 0 1378.72 932.79">
  <defs>
    <style>
      .cls-1 {
        fill: #441d52;
      }

      .cls-2 {
        fill: #6c377a;
      }

      .cls-3 {
        fill: #fff;
      }
    </style>
  </defs>
  <g id="Layer_1-2" data-name="Layer 1">
    <g>
      <path class="cls-2" d="M443.26,913.22c-23.72,27.41-72.17,25.65-91.62-3.33-13.3-19.81-12.86-47.44,1.42-66.3,21.59-28.51,69.08-28.09,90.8-1.1,15.24,18.93,15.35,52.28-.61,70.73ZM385.48,910.38c12.44,7.55,28.17,3.06,35.83-8.9,13.44-21,6.09-56-17.01-59.85-10.17-1.69-18.93,1.94-25.62,9.17-12.61,13.62-13.28,47.38,6.8,59.58Z"/>
      <path class="cls-2" d="M640.87,908.52c-18.29,27.87-61.34,32.17-86.76,10.68-14.08-11.9-19.44-30.16-17.55-48.41,2.02-19.53,13.3-35.71,31.69-43.41,16.76-7.02,36.48-6.97,52.63,1.18,18.7,9.44,28.72,27.32,28.47,47.9-.14,11.49-2.01,22.22-8.48,32.07ZM606.94,909.74c11.74-7.64,15.68-20.21,15.42-33.36-.28-13.86-5.68-27.56-19.04-33.19-12.63-5.32-27.18.52-34.01,12.54-7.75,13.65-7.96,30.97,0,44.42s24.54,18.11,37.63,9.59Z"/>
      <path class="cls-2" d="M258.38,907.15c14.26,11.5,38.14,5.32,53.73-2.05l8.17,14.99c-13.39,9.35-28.38,12.62-44.16,12.59-16.26-.02-31.87-5.01-42.42-17.81-10.4-12.63-13.52-29.16-11.63-45.33,3.56-30.57,30.76-50.04,60.72-46.74,32.43,3.57,45.43,29.67,42.07,60.48l-75.59.17c-.84,9.05,2.14,18.07,9.12,23.7ZM298.89,867.09c.38-8.18-1.9-15.33-7.3-20.07-8.16-7.17-19-8.34-28.7-3.37-8.12,4.16-14.34,13.29-13.61,23.67l49.61-.22Z"/>
      <path class="cls-2" d="M502.54,932.63c-13.11.21-23.46-7.76-24.88-20.7-.66-5.96-1.41-12.27-1.26-18.52.18-7.29,1.52-14.41.21-21.54-.98-5.29.27-10.1.28-15.47l.21-75.37c8.65-1.65,16.27-3.07,25.78-3.86l.05,124.17c0,6.23,4.23,10.92,10.27,10.06l8.21-1.17,1.85,18.9c-6.6,3.23-13.07,3.37-20.71,3.49Z"/>
      <g>
        <path class="cls-1" d="M315.88,348.96l25.69-.97,43.09-.98c8.09-.18,15.81-.16,23.91,0l49.25.97,24.32.77,21,1.03,22.02.93,17.95,1.02,25.11,1.1,130.83,7.15,58.68,2.23c30.69,1.17,60.48,1.1,91.36.15,49.71-1.53,117.44-9.42,162.66-30.08,31.86-14.55,63.86-37.36,77.46-70.72,12.53-30.72,5.96-66.58-20.79-86.32-17.99-13.27-41.78-11.22-56.53,4.93-13.55,14.84-14.8,35.91-2.28,51.65,1.68,2.11,1.57,5.33.41,7.16-5.21,8.21-19-2.28-25.19-10.38-10.82-14.15-13.62-32.56-8.07-49.79,8.44-26.21,31.41-44.63,58.71-47.93,42.34-5.12,81.49,23.43,94.9,63.64-10.99,7.53-16.34,19.82-14.25,32.88,1.74,10.91,7.26,20.1,15.24,28.02-3.07,15.14-8.31,28.83-16.83,41.76-21.7,32.98-53.08,57.88-89.68,72.71-15.88,6.43-31.11,11.59-47.88,15.43-39.36,8.99-78.69,13.19-119.09,14.6-31.51,1.1-62.12,1.08-93.47-.01l-30.55-1.06-30.67-1.3-39.2-2.22-125.8-8.11-56.48-2.54-27.03-.92-43.32-.98c-58.11-1.31-115.57.09-173.56,3.96-22.44,1.5-43.43,4.14-65.49,7.71C108.58,404.77,50.59,425.03,0,467.84c0-5.94,4.72-8.84,8.09-12.56,22.51-24.89,49.41-44.24,79.62-59.02,64.67-31.64,156.5-44.58,228.17-47.3Z"/>
        <path class="cls-2" d="M378.19,288.2l28.61-1.01c71.35-2.51,140.13,2.25,212.15-.05,57.77-1.84,106.68-10.84,159.37-34.33,13.26-5.91,25.2-12.92,37.38-20.78,22.94-14.8,41.72-33.95,55.09-57.94,14.34-25.73,16.41-56.77,4.5-83.5-12.11-27.19-33.74-52.96-65.11-55.04-19.51-1.29-38.62,4.27-53.34,16.48-16.8,13.94-25.05,35.53-20.14,56.81,3.65,15.78,14.95,27.56,28.04,35.88,2.95,1.87,2.5,5.82,1.61,8.26-3.17,8.66-14.88,6.94-22.52,3.52-28.95-12.95-44.14-44.38-38.18-75.87,7.93-41.86,42.16-73.9,84.84-79.58,74.52-9.93,130.29,51.68,133.03,122.89,1.64,42.67-16.6,83.22-46.51,113.28-12.26,12.32-24.46,22.63-39.11,31.99-23.45,14.98-48.41,25.7-75.41,33.44-35.3,10.11-70.81,15.63-107.69,17.14-36.01,1.47-71.26.75-107.21-.03l-43.23-.95-30.29-.7-22.06-.98-96.83.25-48.55,2.55c-49.54,2.61-97.21,10.21-145.93,23.8,14.11-11.2,29.86-17.84,46.09-24.53,48.01-19.29,119.39-29.18,171.39-31.01Z"/>
        <path class="cls-2" d="M1216.67,334.63c-8.3,5.4-18.73,3.42-24.15-4.88l-61.16-93.59c-5.44-8.32-1.21-20.66,6.66-25.95l50.19-33.72,104.96-67.94c7.95-5.15,16.77-3.47,22.14,5.1l61.17,97.47c3.62,5.76,3.04,16.58-3.13,20.65l-113.77,75.1-20.16,12.96-22.75,14.8Z"/>
        <path class="cls-2" d="M445.6,184.36l-44.73,5.57-67.31-40.96c-6.05-3.68-9.4-12.72-5.56-18.87l36.4-58.26c4.06-6.5,12.1-7.3,18.26-3.69l95.49,55.96c8.88,5.21,11.95,14.16,6.39,23.17l-21.59,35.02c-5.74,1.27-11.07,1.28-17.34,2.06Z"/>
        <path class="cls-2" d="M507.52,199.99c47.71-2.38,121.27-.02,155.77-39.36,7.06-8.05,10.17-17.5,10.16-28.25-.01-16.98-9.08-32.94-25.03-39.09-10.91-4.21-22.57-1.27-30.09,7.33-4.68,5.36-7.98,11.74-9.05,18.84-1.65,10.89,4.52,20.72,14.48,24.54l9.3,3.57c1.18.45,1.15,2.23.84,3.16-1.22,3.66-15.16,6.07-26.24-2.1-11.87-8.75-16.07-24.31-11.79-38.67,3.76-12.63,12.39-24.02,24.34-30.08,16.72-8.47,36.48-4.83,50.05,7.2,23.01,20.4,28.71,52.56,13.72,79.47-6.79,12.19-16.43,21.88-28.49,29.19-25.86,15.67-72.51,24.8-101.6,25.24l-50.26.76c-41.75.63-82.42,4.19-123.46,12.54-28.92,5.88-55.63,15.23-82.22,29.31,4.3-7.25,10.72-11.49,17.21-16.07,16.99-11.97,35.35-20.26,55.47-26.44,38.98-11.97,78.92-18.2,119.56-20.23l17.32-.87Z"/>
        <path class="cls-2" d="M509.77,260.89c-17.54-1.28-34.14-2.32-51.23-6.07-4.71-1.03-9.76-1.33-13.93-4.94l101.55-.35c37.89-.13,74.71-4.82,111.84-12.42,30.29-6.2,58.83-15.75,87.26-27.31,21.43-8.72,40.76-20.07,57.63-35.47,19.82-18.08,33.63-45.58,15.6-70.13-1.36-1.86-1.62-3.87-.56-5.7,3.74-6.5,20.14,1.68,26.56,19.46,10.32,28.64-6.56,56.99-27.14,76.96-40.88,39.68-96.87,56.07-152.13,65.45-9.48,1.61-18.06,2-27.59,2.54-42.82,2.41-85.06,1.12-127.87-2.02Z"/>
        <path class="cls-2" d="M787.9,338.76c-4.95-.15-65.65-1.69-64.73-5.62.18-.77,1.03-1.31,2.09-1.39l48.65-3.39c29.51-2.06,57.77-5.38,87.2-9.82,37.39-5.64,73.49-12.89,109.25-24.76,33.89-11.25,81.47-33.78,88.69-72.47.21-1.15,1.92-1.73,2.61-1.76,6.02-.29,9.14,41.64-32.95,71.47-16.77,11.88-34.33,21.13-54.1,27.7-32.1,10.67-65.05,15.82-98.85,18.18-29.61,2.07-58.24,2.75-87.86,1.87Z"/>
        <g>
          <path class="cls-1" d="M622.62,671.27c10.72,18.01,30.22,28.66,50.88,24.57,38.88-7.68,60.06-51.15,46.1-88.83-19.62-52.97-81.6-85.7-132.89-101.52-26.25-8.1-52.01-14.55-79.39-18.6-39.13-5.79-77.48-8.95-116.94-11.05l-76.34-4.07-28.89-1.21-63.64-3.64c-37.17-2.13-83.99-6.45-120.26-16.13,5.79-2.96,12.06-3.09,18.52-3.81,13.17-1.45,26.08-2.58,39.37-3.46l29.19-1.94c99.41-6.6,262.69-2.04,360.66,18.03,25.87,5.3,50.47,10.97,75.09,19.96,45.89,16.77,90.09,42.81,117.11,84.62,10.71,16.57,18.53,34.33,20.66,54.25,3.72,34.87-10.18,69.42-36.26,92.17-14.77,12.89-36.79,21.32-56.19,22.19-41.36,1.84-80.35-26.92-85.31-69.3-4.01-34.32,17.33-65.8,50.94-73.21,9.82-2.17,21.56,1.7,20.61,9.43-1.07,8.64-16.13,1.6-30.84,22.75-9.7,13.96-11.34,33.37-2.15,48.8Z"/>
          <path class="cls-2" d="M375.55,685.18c-8.01,5.65-17.22,3.83-22.63-3.83l-44.91-63.67-33.08-46.1c-5.4-7.52-4.72-17.22,1.34-24.06l53.11-36.89c8.24-5.73,19.36-6.13,25.88,3.15l62.05,88.26,14.95,21.12c6.05,8.55,3.33,19.67-4.98,25.53l-51.73,36.49Z"/>
          <path class="cls-2" d="M434.64,420.17l-28.58-1.7-24.01-1.06-19.99-1.01c-10.79-.55-21.12-1.09-32-.79-5.1.14-9.78-1.33-15.02-1.52,15.7-3.72,40.42-4.71,58.05-5.75l13.95-.82,14.06-.95,21.95-1.07,17.19-.95c21.57-1.19,42.85-.94,64.31.15l18.41.93c41.47,2.1,78.65,6.7,119.32,16.73,49.04,12.1,94.2,34.95,134.43,65.83l-21.95,18.67c-36.61-27.84-78.03-46.37-122.42-57.99-35.17-9.21-69.7-16.16-105.82-19.99l-60.85-6.46-31.03-2.24Z"/>
          <g>
            <path class="cls-1" d="M1237.72,584.02c-4.64,9.23-16.69,14.71-26.35,9.88l-147.83-73.88-15.03-7.92c-11.93-6.28-16.63-19.74-10.25-31.61l23.04-42.9,24.64-48.36c4.99-9.79,15.41-13.83,25.9-9.3,8.65,3.73,16.59,8.11,25.51,12.48l137.34,67.45c8.47,4.16,14.39,12.64,12.94,22.12-.94,6.17-4.3,11.41-7.05,16.89l-42.85,85.15Z"/>
            <path class="cls-1" d="M878.77,682.11l-49.53-51.76-66.42-69.53c-7.74-8.1-8.73-19.93-2.11-28.99,3.8-5.21,9.1-8.71,13.93-12.97l25.49-22.45,38.08-33.81c9.68-8.59,24.16-8.34,33.41,1.62l113.35,122.15c8.51,9.17,5.05,22.1-3.1,29.73l-38.19,35.75-33.99,31.89c-9.17,8.61-22,7.69-30.91-1.62Z"/>
            <path class="cls-2" d="M1029.81,448.51c-6.65-2.01-12.09-5.63-18.56-8.34-24.58-10.28-49.66-15.8-76.73-19.36,12.87-5.06,25.23-5.88,38.29-6.83,24.15-1.75,48.37.8,71.38,7.82-4.44,9.61-8.49,17.59-14.38,26.7Z"/>
          </g>
        </g>
      </g>
    </g>
    <path class="cls-3" d="M904.69,910.2c-21.69,28.77-70.66,30.16-93.68,1.04-18.05-22.84-14.77-58.27,6.68-77.24,11.97-10.58,32.62-15.63,48.18-13.02,31.47,4.09,50.77,27.16,49.16,59.27-.54,10.76-3.64,21.08-10.33,29.96ZM882.73,895.51c5.83-12.23,5.56-25.62.53-37.74-4.27-10.29-14.14-16.97-24.99-17.29s-20.53,5.78-25.62,15.56c-6.85,13.17-6.64,29.44,1.06,42.2,5.39,8.92,15.46,14.23,25.2,13.54,10.12-.72,19.09-6.34,23.82-16.27Z"/>
    <path class="cls-3" d="M1017.91,913.86c-4.74-9.34-4.18-19.79.5-28.96,10.4-20.39,44.31-20.95,64.32-16.86.6-10.19-.15-26.52-15.39-27.47-13.05-.82-25.34,2.88-37.83,9.21l-9.54-16.71c16.2-10.64,37.52-14.42,56.11-12.12,16.7,2.06,33.04,14.65,33.18,32.84l.6,76.25-24.49.13-1.63-10.33c-18.82,17.55-54,17.34-65.84-5.98ZM1082.69,893.67l.28-10.27-10.25-.95c-9.22-.85-24.12-1.01-29.95,7.66-3.39,5.05-2.71,14.14,1.89,18.04,6.5,5.52,15.37,4.65,23.02,2.91,8.27-1.88,14.76-8.09,15.01-17.38Z"/>
    <path class="cls-3" d="M700.11,863.97l-.32,66.12-26.92.05c1.16-10.22,1.22-18.67.47-28.31-1.24-15.94,0-30.09.02-46.74l.03-16.71c0-5.5,1.01-10.6-.62-16.2h22.93s2.68,13.62,2.68,13.62c14.16-21.72,61.24-20.65,71.81,2.1,2.84,6.12,5.39,13.47,5.41,20.6l.12,71.67-26.76-.12-.46-61.4c-.05-7.09-1.86-14.85-5.47-20.52-6.47-10.17-27.29-8.64-35.89-.48-3.67,3.48-6.99,10.4-7.01,16.3Z"/>
    <path class="cls-3" d="M1219.91,901.39c-2.65,27.01-39.67,35.23-61.62,29.53-10.3-2.67-19.2-6.15-28.22-12.58,3.16-7.29,6.47-13.36,10.33-19.6,13,11.05,34.31,18.07,49.21,9.95,4.54-2.47,6.43-10.71,2.33-14.51-13.1-12.15-47.3-9.16-54.69-31.35-3.14-9.42-1.69-18.3,3.41-26.1,13.76-21.02,54.67-20.41,74.98-5.68l-8.12,17.82c-11.9-9.03-47.09-14.66-45.82,2.75,1.42,19.3,62.37,7.45,58.22,49.77Z"/>
    <path class="cls-3" d="M995.13,907.13l7.92,18.83c-9.2,5.64-19.67,6.34-30.24,6.37-14.2.04-27.5-9.31-27.59-24.56l-.37-66.56-18-.04.02-18.99h18.81s.85-15.01.85-15.01c.25-4.49.93-8.81,2.05-13l23.29.02-.03,27.92,29.02.26-.14,18.75-28.92.1.23,57.5c.02,4.33,2.7,9.37,6.35,10.74,5.57,2.09,11.43.4,16.73-2.32Z"/>
  </g>
</svg>