<svg xmlns="http://www.w3.org/2000/svg" id="Layer_2" data-name="Layer 2" viewBox="0 0 810 557.8"><defs><style>.cls-2{fill:#fe5252}.cls-4{fill:#ffb6c2}.cls-5{fill:#fefbfb}.cls-6{fill:#ffb7c3}</style></defs><g id="Layer_1-2" data-name="Layer 1"><path d="M0 328v-8l1-3c-1-3 17-2 20-2v9q0 14 8 25c11 13 29 17 44 10a27 27 0 0 0 8-44q-6-6-15-11l-20-11c-13-6-28-17-35-30a38 38 0 0 1 20-52q10-5 23-5 14-1 27 5 23 11 24 36l-3 1H83l-2-14c-3-13-15-20-28-19-15 1-26 14-24 29 2 11 14 20 22 25 18 12 32 16 47 31s17 36 5 53q-9 11-21 15c-12 4-17 4-26 4-19 0-39-7-49-24q-5-9-7-20" class="cls-5"/><path d="M411 557h6v1h-6zM0 320v-3h1zM0 328v-3z" class="cls-2"/><path d="M216 424v44h11c23-1 45-8 46-34q0-21-19-28-6-3-14-3-27-4-54 0-21 2-36 16a54 54 0 0 0-16 48c2 10 7 22 19 24l-8 12-5 2c-20-7-30-27-29-47q2-24 19-41 24-21 57-24 18-2 36-1 29-2 54 9 12 6 17 18c6 16 0 34-14 43l-21 9q13 1 24 5 18 7 23 24c6 21-4 43-25 51q-21 6-43 4h-42l-10-1q6-7 6-17v-99q0-8-4-17 15-1 28-10zm48 119c19-6 24-27 19-43-5-15-20-20-34-22q-17-2-33-1v69h31q9 0 17-3M568 501v32l1 5c-2 7 2 11 3 16h-21q-4-2-6-6l-1-15v-50c0-8-3-21-12-25q-13-4-23 4-13 10-13 27v51q0 8 6 15h-36q7-7 7-17v-73q-1-9-6-17 13 1 28-3l-1 21q6-11 17-17 15-8 32-3 13 4 19 16t6 25zM266 279q-10 9-10 25v49q1 8 7 15h-29l-7-1q4-5 6-12v-72l-1-11q-2-6-6-10c11 0 18-1 29-3v18c12-17 36-25 55-15 15 8 19 26 19 42v46q0 10 7 17l-23 1q-4-2-6-5l-1-15v-37q2-16-4-32-6-9-18-9-10 0-18 9M193 356q12-5 19-15l5 4q1 2-1 5c-14 20-40 26-63 18q-21-8-29-30c-8-24-3-54 17-70 15-12 38-14 54-5s23 28 24 47l-2 4-21 1-52 4q0 11 5 20c7 16 27 24 44 17m5-51-4-19q-2-7-8-12-6-6-14-6h-4q-7 2-12 7-13 15-12 35l31-3zM417 557h-6l-18-3q-17-8-25-26c-10-24-5-57 17-73 14-11 33-14 49-7q16 8 22 25 3 11 3 23 0 4-3 4l-24 3-46 4 3 12c4 19 25 31 44 24q11-5 20-17l6 6q-15 25-42 25m-3-62 24-3q0-16-9-30-8-9-18-7t-16 10q-8 14-9 32l16-1zM599 359c-14 15-38 15-55 8q-20-9-19-32h13q5 1 5 11c4 14 21 18 34 14q9-3 11-13c2-12-11-19-21-22-17-7-37-15-38-36q0-17 13-26 9-5 19-6c12-1 26 2 34 10q5 6 5 12 1 5-1 8l-6 1-4-1-5-9q-11-15-29-10-6 3-7 9-1 15 14 22l19 8c12 6 25 15 26 30q0 13-8 22M387 359l9-3 3 8q-15 10-32 4c-13-4-12-19-12-30v-69h-13l-4 1v-8l12-7q11-11 9-27 9 0 19-4v37h13l3 1v7h-16v73l1 12q2 6 8 5" class="cls-5"/><path d="m569 538-1-5v-32l5-15 6-23 7-25 7-20 17-34 12-20q4-3 4-7l2-1 10-16 1-2q7-8 11-17c0 1 8-9 7-10l2-3 11-17 9-13 1-1v5l-3 11-2 8c-2 2-6 17-6 17l-14 37-6 15q-17 44-42 87l-11 21-15 24q12-7 22-18a457 457 0 0 0 66-94l7-13 4-9 2-2 7-13 1-3 10-22 7-17c9-34 2-65-11-97l-1-4 3-2q5-1 7 3l11 27c4 14 7 40 4 55l-2 14-4 17c-6 14-27 58-35 72l-13 20q-5 7-5 11h1l10-12 7-9 14-16 15-19a693 693 0 0 1 96-95c3 2-6 16-8 19l-10 18-23 41-11 19-4 5-6 9-8 12q-24 32-54 59l-25 20-15 11q-21 14-43 27-14 10-28 22" class="cls-4"/><path d="M645 125c-10 0-16 10-18 20q-1 6-3 11-5 6-13 9-10 5-24 5c-16-1-31-13-42-25q-9-11-14-26c-5-20 8-35 23-47q18-14 41-16a45 45 0 0 1 44 27c4 7 10 26 15 30l4 4-7 7zM717 159c-6-5-3-4-5-15q-2-9-10-16c-8-5-11 0-15-4l-5-5-1-1 1-1c14-8 16-30 30-45q9-9 21-12c26-5 51 9 67 29q10 12 10 28c0 16-6 20-13 29-11 13-28 25-45 26q-21 1-35-13" class="cls-6"/><path d="M685 110c-7 8-10 3-18 5q-6 0-10-4l-7-10-5-13q-5-12-14-22c-4-5-7-5-8-10q-1-12 5-22 9-18 27-29c6-3 15-7 22-4q24 9 35 30 6 9 6 19c1 14-3 13-7 17l-13 19-5 11q-2 7-8 13" style="fill:#ffb7c2"/><path d="m660 218-12-11c-6-6-10-9-12-17q-1-7 6-9l8-1 2-2c1-3-4-5-7-5q-6-1-11-5c-7-7-6-21-1-29q3-8 11-10l4 1 2 5q-1 10 6 16 3 3 3 8l1 8q0 3 2 1l1-4q0-9-4-15c-6-9-6-24 3-29q7-4 15-1 7 6 8 14c1 16-9 16-10 30v5l2 1 2-1c1-8-1-11 5-17q6-7 6-16 0-5 6-5 6 2 9 7 5 9 5 20-2 13-15 16c-3 1-9 1-9 6q2 2 10 3 7 3 6 10-3 7-8 12l-18 15q-4 4-9 3-4 0-7-4" class="cls-4"/><path d="M636 203a80 80 0 0 1-52 17c-8 0-24-1-27-11q-2-10 1-19 3-11 9-20 2-3 5-1c17 7 38 4 52-8 4-3 2 9 14 13l2 3-5 4q-3 2-3 6c0 8 5 12 5 14zM779 214c-4 10-21 10-29 9q-27-2-48-20l-1-1c-2-1 4-5 5-12q1-8-7-11l-2-1 1-1c7-4 10-5 14-12q0-3 2-3l8 6c12 8 32 10 47 4l4 6c4 9 9 26 6 36" class="cls-4"/><path d="m457 368-5-1q5-5 6-14v-68q1-8-2-15 0-4-4-8h7l21-3v17l4-5q10-13 26-14 13 0 16 12l-13 14c-2-5-4-15-12-12-13 5-20 19-20 32v31c0 12-2 24 7 34zM669 318s4-15 6-17c3-3 8-13 5-19v-5l-2 1q-5-11-16-11c-19 3-27 29-27 45l22-1c1 1-7 11-7 10l-15 1 4 16-1 2-10 16-2 1q-8-8-11-20c-6-22-3-47 14-65 12-13 32-19 50-13q14 7 18 22 1 14-8 25-8 8-20 12M435 351q-1 10 6 16l-4 1h-31c8-10 6-15 6-25v-68q0-7-4-13h27v89M331 555l-10-1q4-4 5-9l1-29v-57l-5-11 27 1v87q-1 11 7 18l-7 1z" class="cls-5"/><circle cx="421.8" cy="225.1" r="14.1" class="cls-5"/><circle cx="336.7" cy="412.3" r="13.9" class="cls-5"/><path d="M680 368q-15 5-31 2l6-15q19 8 35-5l-1 3-7 13z" style="fill:#fefafa"/><path d="m661 391 6-3q-1 2-6 3" class="cls-2"/></g></svg>