<?xml version="1.0" encoding="UTF-8"?>
<svg id="Layer_2" data-name="Layer 2" xmlns="http://www.w3.org/2000/svg" viewBox="0 0 809.99 557.83">
  <defs>
    <style>
      .cls-1 {
        fill: #ffb7c2;
      }

      .cls-2 {
        fill: #fe5252;
      }

      .cls-3 {
        fill: #fefafa;
      }

      .cls-4 {
        fill: #ffb6c2;
      }

      .cls-5 {
        fill: #fefbfb;
      }

      .cls-6 {
        fill: #ffb7c3;
      }
    </style>
  </defs>
  <g id="Layer_1-2" data-name="Layer 1">
    <g>
      <path class="cls-5" d="M.48,328.48c-.19-1.03.12-2.64-.48-3.36v-4.8c.46-.85.54-2.24.5-3.38-.76-3.3,17.4-1.55,20.15-1.57.27,3.1.39,5.48.34,8.33-.15,9.38,2.37,18.47,8.44,25.72,10.69,12.78,28.79,16.62,43.83,9.56,10.41-4.89,16.15-15.28,15.65-26.69-.28-6.5-2.97-12.08-7.42-16.85-4.36-4.68-9.47-8.5-15.19-11.49l-20.25-10.61c-12.71-6.66-28.29-17.56-34.79-30.76-5.61-11.39-4.99-25.05,1.59-35.9,4.21-6.95,10.42-11.87,17.66-15.36s14.93-4.95,23.05-5.38c9.56-.5,18.92,1.31,27.62,5.27,15,6.84,22.32,20.19,24.25,36.12-1.25.18-2.61.46-3.74.46l-18.69.03c-.47-4.87-.77-9.27-1.98-13.81-3.44-12.95-15.24-19.62-28.04-18.99-15.06.74-26.33,14.12-23.73,29.08,1.84,10.59,13.46,19.83,22.07,25.34,17.58,11.25,32.14,15.7,46.97,30.61s16.53,36.25,4.35,52.55c-5.25,7.02-12.55,11.91-20.79,15.05s-16.79,4.06-25.73,3.99c-18.98-.13-39.34-7.04-49.4-23.97-3.59-6.04-5.04-12.56-6.26-19.21Z"/>
      <rect class="cls-2" x="411.24" y="557.35" width="5.28" height=".48"/>
      <path class="cls-2" d="M0,320.32v-3.36l.5-.03c.04,1.14-.04,2.53-.5,3.38Z"/>
      <path class="cls-2" d="M.48,328.48h-.48v-3.36c.6.72.29,2.33.48,3.36Z"/>
      <path class="cls-5" d="M215.87,424.21l.04,34.75.18,9.28,11.17-.34c22.57-.68,45.15-7.76,45.47-34.32.15-12.57-6.93-23.22-18.73-27.57-4.47-1.65-8.93-2.78-13.84-3.42-18.03-2.36-36.01-2.23-54.06.1-13.64,1.76-25.78,7.31-35.61,16.77-12.79,12.31-18.94,29.7-16.3,47.31,1.53,10.23,7.19,21.85,18.76,24.38-2.5,4.28-5.09,8.08-8.13,11.92-1.09,1.38-3.35,2.02-5.15,1.45-19.99-6.3-29.58-26.53-28.68-46.56.71-15.75,7.89-30.19,19.21-41.02,15.26-14.6,35.65-21.36,56.38-23.77,12.17-1.42,24.13-2.06,36.34-1.58,17.75.69,37.98.98,54.05,9.18,7.78,3.97,14.2,10.11,17.26,18.34,5.94,15.96-.5,33.44-14.51,42.82-6.44,4.31-13.32,6.72-20.81,8.96,8.65.79,16.39,1.92,24.18,4.86,11.35,4.28,19.96,12.93,23.3,24.71,5.95,20.98-3.93,42.95-25.13,50.27-14.32,4.95-27.89,4.33-42.83,4.26l-42.89-.21-9.12-.32c3.78-5.41,6.02-10.76,6.02-17.38l.04-98.61c0-6.26-1.31-11.64-4.66-17,10.1-1.74,18.96-4.92,27.89-10.25l.16,12.99ZM264.27,543.09c18.38-6,24.11-26.78,18.52-43.39-4.83-14.34-19.67-20.07-33.57-21.72-11.02-1.31-21.93-1.5-33.06-1.1l-.33,6.14.09,45.96.17,17.01,31-.09c5.92-.02,11.39-1.2,17.17-2.8Z"/>
      <path class="cls-5" d="M568.44,501.11c0,1.26-.31,2.8-.3,3.95l.35,27.83c.02,1.37.96,3.55.66,4.7-1.92,7.45,2.11,11.05,2.88,16.86-7.3.76-14.05,1.02-21.12-.13-3.1-.5-5.01-3.9-5.5-6.81-.85-5.03-1.02-9.81-1.04-14.97l-.19-49.05c-.03-8.64-3.03-21.81-12.08-25.35-7.92-3.1-16.63-1.29-23.16,3.98-8.1,6.54-12.87,15.93-12.96,26.49l-.29,32.24-.03,18.75c0,5.88,2.11,10.57,6.43,14.96l-32.76.09-3.38.11c4.24-4.73,6.75-10.02,6.75-16.66l.03-72.79c0-6.47-2.45-11.6-6.15-16.98,9.79.46,18.56-.47,27.92-3.38.27,7.02.06,13.67-.5,21.12,4.48-7.04,9.75-13.02,17.2-16.99,9.81-5.22,21.07-6.29,31.74-3.29,8.54,2.4,15.18,7.95,19.3,15.78,4.17,7.94,5.34,16.52,5.67,25.43l.51,14.11Z"/>
      <path class="cls-5" d="M266.38,278.67c-7.17,7.82-10.29,14.24-10.37,25.55l-.2,27.62c-.05,7.22-.32,14.19.15,21.29.37,5.59,2.69,9.8,6.65,14.45-9.9.48-18.97.36-28.42.22-2.61-.04-5.02-.07-7.59-.43,3.23-3.95,5.55-7.6,6.12-12.54.87-7.62.78-14.96.75-22.65l-.22-49.22c-.02-3.79-.67-7.43-1.58-10.97-1-3.88-3.47-6.85-5.93-10.44,11.15.94,18.13-.35,28.9-2.48l.42,18.08c11.62-17.16,35.94-25.6,54.91-15.23,15.17,8.29,18.97,26.02,18.93,42.06l-.02,6.35.07,39.87c.01,6.55,2.27,12.22,6.61,17.18-7.79.79-15.26.87-22.71.15-2.99-.29-5.18-2.05-5.8-4.99-1.01-4.74-.93-9.48-.9-14.43l.23-36.76c.07-10.82.82-21.99-4.47-31.88-3.5-6.54-9.99-9.84-17.42-9.44-7,.38-13.34,3.44-18.11,8.65Z"/>
      <path class="cls-5" d="M192.65,356.27c7.98-3.35,14.01-9.12,18.92-15.63,2.09,1.08,4.35,2.37,5.5,4.54.58,1.1-.3,3.43-1.05,4.56-13.68,20.58-40.29,25.86-63.14,17.86-13.95-4.89-24.3-15.6-28.92-29.75-7.71-23.63-3.05-53.54,17.52-69.89,15.01-11.93,37.12-14.34,53.96-4.83s22.73,28.24,23.21,46.84c.03,1.05-.95,3.67-2,3.82-7.02,1.03-13.71,1-20.79,1.51l-52.07,3.76c.24,6.98,1.85,13.56,4.88,19.95,7.77,16.37,26.83,24.48,43.99,17.27ZM197.62,305.09c-.51-7.05-1.45-12.7-3.33-18.69-1.85-4.84-4.22-9.28-7.89-12.89-3.93-3.93-9.02-5.81-14.62-5.56-1.28.06-3.09-.08-4.25.18-4.59,1-8.24,3.54-11.68,6.53-8.86,9.46-11.82,22.32-12.34,35.18l31.63-2.4,22.47-2.34Z"/>
      <path class="cls-5" d="M416.52,557.35h-5.28c-6.36,0-12.18-1.54-17.94-3.73-11.79-4.5-20.79-13.6-25.41-25.46-9.58-24.61-4.65-56.77,16.77-73.64,13.86-10.91,33.14-13.44,49.23-6.11,10.54,4.81,17.89,14.01,21.66,24.78,2.63,7.52,3.66,15.31,3.77,23.15.03,2.36-1.34,3.81-3.45,4.04l-24.21,2.61-45.48,3.6,2.7,12.2c4.34,19.6,24.87,31.28,43.8,23.92,8.11-3.15,14.62-9.17,19.85-16.26l6.09,5.81c-8.48,15.36-24.74,24.67-42.11,25.09ZM414.35,494.64c8.26-.72,15.79-1.16,23.76-2.55-.77-10.41-2.39-22.57-9.27-30.51-4.41-5.21-10.69-7.61-17.69-6.73-6.53.82-11.92,5.11-15.82,10.35-6.27,9.7-8.45,20.08-9.21,31.76l15.43-1.2,12.81-1.12Z"/>
      <path class="cls-5" d="M598.76,359.35c-13.9,14.24-38.11,15.1-55.2,7.69-13.42-5.82-18.99-17.45-18.7-31.64,4.68-.47,8.81-.7,13.26-.46,4.01.22,3.45,5.26,4.88,10.58,4.03,14.96,20.84,18.48,33.8,14.68,6.27-1.84,10.28-6.83,11.22-12.72,2.08-12.9-10.75-19.02-21.18-22.92-16.95-6.34-37.22-14.85-37.54-35.91-.15-10.23,4.15-19.38,12.72-25.2,5.49-3.72,12.13-6.09,18.87-6.48,11.77-.67,25.69,2.15,34.15,10.52,3.16,3.13,4.67,7.13,4.97,11.51.18,2.65.55,5.62-.9,8.05-1.2,1.22-4.28,1.03-5.97.83l-3.67-.43-5.45-8.98c-6.09-10.02-18.08-14.4-28.96-10.19-3.82,1.48-6.2,4.47-6.99,8.46-2.04,10.27,5.28,17.19,13.55,21.79,6.17,3.43,12.47,6.05,18.98,8.8,12.81,5.42,25.4,14.48,26.07,29.74.36,8.25-2,16.2-7.91,22.25Z"/>
      <path class="cls-5" d="M386.6,359.37c3.75-.32,6.36-2.05,9.74-3.76l2.49,7.89c-9.44,6.57-21.23,8.5-31.96,4.65-12.91-4.63-11.77-19.2-11.77-30.57v-33.55s-.09-34.92-.09-34.92l-13.25.11-4.07.29.08-7.1c4.25-2.46,7.96-4.72,11.73-7.66,7.15-6.85,10.09-16.48,9.02-26.35,6.65-.7,12.63-2.03,19.15-4.19.87,9.3.98,18.32.65,27.48l-.25,9.68,12.6-.08c.76,0,2.33.65,3.18,1.06l.17,6.73-15.99.11c.32,7.14.45,13.44.34,20.15l-.28,17.12-.02,35.44c0,4.22.56,8.24,1.12,12.31.49,3.52,3.49,5.5,7.38,5.16Z"/>
      <g>
        <path class="cls-4" d="M569.16,537.6c.3-1.16-.65-3.34-.66-4.7l-.35-27.83c-.01-1.16.3-2.69.3-3.95,1.87-4.91,2.91-10.09,4.3-15.43l5.95-22.89,6.92-24.6c2-7.12,4.6-13.58,7.46-20.4,5-11.9,10.44-23.09,17.27-34.09l11.99-19.34c1.49-2.4,3.27-4.52,4.08-7.01.26,0,1.17-.47,1.44-.88l10.47-16.31c.57-.89.92-1.76,1.02-2.57,4.15-4.96,7.25-10.8,10.84-16.19-.46.69,7.76-9.64,6.76-10.73.88-.69,1.61-1.87,2.32-3l10.66-16.98,8.57-12.97,1.67-.53-.6,5.23c-.4,3.46-1.5,6.89-2.48,10.44l-2.29,8.25c-1.77,1.69-5.73,17.24-5.42,16.42l-13.99,37.75c-1.72,4.64-4.01,9.72-6,14.38-12.7,29.82-25.64,59.53-42.02,87.68l-11.84,20.34-14.95,24.73c7.98-5.78,15.18-11.52,22.03-18.12,6.83-6.6,24.38-30.27,30.62-39.03,12.83-18.02,24.6-36.3,35.5-55.5l7.18-12.65c1.67-2.95,3.2-5.82,4.43-8.76.51-.56,1.27-1.47,1.66-2.24l6.8-13.37c.41-.8.68-1.87.76-2.61,3.84-6.97,6.94-14.32,10.36-21.74,2.7-5.84,4.99-11.38,6.67-17.6,9.15-33.95,2.69-65.2-10.84-96.88-.5-1.17-.79-2.74-.37-3.64s1.68-2,2.66-2.32c3.24-1.06,6.06.39,7.44,3.44,3.9,8.63,7.19,17.31,10.05,26.4,4.61,14.62,7.53,40.04,4.78,54.7-.89,4.71-1.21,9.45-2.37,14.12-1.43,5.75-2.34,11.58-4.33,17.15-5.23,14.66-26.71,57.83-35.06,71.85l-12.37,20.79c-2.04,3.43-6.15,8.17-5.55,10.57l1.01-.05,10.35-12.4,7.23-8.57,13.39-16.28,15.28-18.56c21.68-26.33,63.36-70.44,90.1-90.69,2.02-1.53,3.8-2.66,6.47-4.08,2.67,2.04-6.39,16.04-8.01,18.82l-10.27,17.56-23.15,41.1-11.27,19.11-3.39,5.18-5.89,8.95c-2.72,4.13-5.42,7.76-8.4,11.8-15.85,21.49-33.62,41-53.6,58.7-8.29,7.34-16.12,14.53-25.18,20.81l-15.66,10.86c-13.88,9.63-28.53,17.26-42.58,26.55-9.9,6.55-18.02,15.39-27.89,21.78Z"/>
        <g>
          <path class="cls-6" d="M644.99,124.86c-10.39.61-16.14,10.48-18.46,19.64-.91,3.6-.37,8.13-2.3,11.39-2.95,4.37-8.06,7.28-12.78,9.46-7.74,3.57-15.61,4.71-24.17,4.18-16.45-1.01-31.69-12.79-42.22-24.79-6.53-7.44-11.32-15.89-13.78-25.47-5.19-20.2,7.96-35.53,22.72-47.2,11.98-9.47,26.1-15.32,41.48-15.75,11.37-.32,22.15,2.85,30.83,10.13,5.53,4.64,9.55,10.5,12.84,16.93,3.64,7.11,10.3,26.05,14.44,29.67l4.82,4.21c-2.69,2.59-4.77,4.58-7.44,6.63-1.51,1.16-4.1.86-5.98.97Z"/>
          <path class="cls-6" d="M716.62,158.88c-5.14-4.92-2.35-4.16-4.59-14.57-1.43-6.62-4.74-12.66-10.52-16.37-7.04-4.52-10.31,0-14.9-4.28l-4.86-4.52c-.24-.22-.61-.87-.66-1.11-.07-.33.5-.99.81-1.16,14.05-7.54,15.65-29.93,30.36-45.34,5.59-5.86,12.33-9.77,20.28-11.33,26.15-5.15,50.99,8.98,67.26,28.51,6.56,7.87,11.14,17.74,10.03,28.16s-5.85,20.55-12.85,28.85c-11,13.04-27.88,25.57-45.46,26.65-13.35.82-25.48-4.45-34.9-13.48Z"/>
          <path class="cls-1" d="M684.84,110.25c-7.1,7.53-10,3.15-17.81,4.29-3.92.57-7.46-.37-10.32-3.31s-4.95-6.46-6.54-10.21l-5.65-13.38c-3.37-7.98-7.59-15.25-13.41-21.71-4.26-4.72-7.28-4.45-7.93-10.36-.83-7.59,1.15-14.74,4.51-21.69,5.93-12.26,15.78-21.83,27.59-28.57,5.93-3.39,15.01-7.02,21.85-4.41,14.92,5.69,27.47,16.42,35.19,30.43,3.28,5.95,5.68,12.1,6.1,18.82.88,13.98-3.48,13.19-7.11,16.98-5.39,5.63-9.64,12.02-12.97,19.04l-4.96,10.45c-2.34,4.94-4.77,9.64-8.53,13.63Z"/>
          <path class="cls-4" d="M659.96,218.28l-11.88-11.41c-6.23-5.98-9.88-8.61-12.33-17.05-1.21-4.14,1.61-8.13,5.8-8.68l8.45-1.12c.75-.1,1.95-.96,2.17-1.61,1.24-3.67-4.43-5.22-7.38-5.77-3.72-.69-7.58-1.84-10.31-4.5-7.55-7.36-6.02-20.86-1.8-29.31,2.24-4.5,5.84-8.39,10.9-9.41,1.7-.34,3.53-.07,4.9.95.96.71,1.86,2.66,1.66,4.26-.8,6.36,1.5,12.25,5.95,16.69,2.12,2.12,2.87,4.82,3.03,7.73l.42,7.72c.06,1.14,1.91,2.8,2.85,1.54.61-.83.33-3.18.44-4.34.54-5.64-.69-10.55-3.7-15.14-5.88-8.97-5.79-23.54,3.02-29.13,4.08-2.58,10.34-2.55,14.61-.52,5.44,2.58,7.63,8.34,7.94,14,.86,15.67-9.18,15.8-9.29,29.8l-.04,5.03c0,.5,1.05,1.27,1.5,1.25.54-.02,1.77-.83,1.86-1.37,1.36-8.15-.26-11.29,5.24-17.12,4.21-4.47,5.84-10.13,5.57-16.15-.16-3.46,3.73-5.03,6.77-4.37,3.91.86,6.79,3.65,8.91,7.17,3.48,5.78,4.62,12.78,4.31,19.54-.38,8.47-6.14,14.89-14.51,16.18-3.34.51-9.48,1.22-8.84,5.39.41,2.7,5.07,2.38,10.12,3.55,4.74,1.1,6.88,5.74,5.42,10.33-1.47,4.6-4.51,8.24-8.21,11.44l-17.41,15.07c-2.55,2.2-6.16,3.8-9.46,3.31-2.44-.36-4.8-2.17-6.66-3.96Z"/>
          <path class="cls-4" d="M635.78,202.73c-15.49,11.69-32.08,18.15-51.78,17.75-8.49-.17-24.33-1.16-27.04-11.28-1.75-6.51-.71-13,.94-19.37,1.91-7.36,4.61-14.18,9.38-20.04,1.39-1.7,2.78-2.06,4.76-1.22,17.14,7.31,38.41,4.81,52-7.51,3.9-3.53,1.6,9.36,14.05,13.4.8.26,1.96,1.52,2.25,2.29l-5.57,4.03c-1.73,1.25-2.81,4.41-2.87,6.55-.24,7.82,5.45,11.63,5.26,13.73-.05.53-.8,1.22-1.38,1.66Z"/>
          <path class="cls-4" d="M778.59,214.07c-3.32,9.7-20.7,10.05-29.07,9.4-17.81-1.38-34-8.54-47.31-20.36l-1.38-1.23c-1.45-1.29,3.98-4.54,5.1-12.06.77-5.14-2.43-9.19-7.21-10.62-.42-.13-1.27-.85-1.52-1.2s.57-1.29.95-1.49c6.69-3.65,10.08-4.79,13.53-11.94.53-1.09,1.53-2.37,2.62-2.6l7.63,5.6c11.92,8.76,32.33,9.98,46.58,3.93,1.63,1.72,3.15,4.16,4.19,6.61,3.93,9.29,9.15,26.37,5.87,35.96Z"/>
        </g>
      </g>
      <path class="cls-5" d="M457.08,367.77c-1.64,0-3.17-.3-4.94-.53,3.29-4.37,5.26-8.51,5.58-13.85.43-7.12.32-14.04.32-21.19v-24.64s0-22.15,0-22.15c0-5.27-.47-10.44-1.7-15.53-.7-2.89-2.71-5.26-4.09-8.07l6.6-.21c7.09-.23,13.48-1.11,20.75-2.98l.14,17.54,3.96-5.32c6.25-8.4,15.9-13.14,26.33-13.51,7.77-.27,14.28,4.02,16.28,11.62-4.74,4.6-9.12,9.24-13.49,14.46-1.61-5.27-3.78-14.92-11.74-12.23-12.78,4.32-19.66,18.36-19.77,31.4l-.25,31.05c-.1,12.55-2,24.33,6.85,34.12l-30.83.02Z"/>
      <path class="cls-5" d="M669.36,317.53c-.3.82,3.65-14.73,5.42-16.42,3.67-3.5,7.73-13.21,4.78-18.69l.6-5.23-1.67.53c-3.39-6.04-9.21-11.28-16.74-10.33-18.81,2.38-27.12,28.33-26.98,44.66,7.73.27,15,.09,22.17-1.37,1,1.09-7.22,11.42-6.76,10.73l-14.99.57c.82,5.4,2.01,10.77,4.15,15.62-.1.81-.45,1.69-1.02,2.57l-10.47,16.31c-.26.41-1.18.88-1.44.88-5.19-5.64-9.02-12.16-11.16-19.86-6.2-22.25-2.79-47.78,13.39-65.08,12.76-13.65,32.25-19.27,49.88-12.99,9.75,3.47,16.47,11.6,17.99,21.85,1.32,8.84-1.03,17.8-7.3,24.32-5.5,5.73-12.42,9.95-19.85,11.93Z"/>
      <path class="cls-5" d="M434.89,351c-.01,5.7,1.61,11.71,6.24,16.08-1.15.41-2.62.72-3.98.72l-30.94-.07c7.33-9.7,5.93-14.38,5.92-24.92l-.08-67.96c0-5-1.66-8.73-4.49-13.31l8.46.03c6.28.03,12.27-.25,18.51.08.24,2.21.56,3.97.56,5.9l-.09,31.02-.1,52.43Z"/>
      <path class="cls-5" d="M331.03,554.77l-10.07-.29c1.69-3.2,4.74-5.71,5.12-9.31,1.02-9.76,1.18-19.21,1.18-29.1v-41.21s-.46-16.34-.46-16.34c-1.21-3.49-2.53-6.41-4.31-10.14l26.72.2.04,87.05c0,8.43,1.12,13.01,6.73,18.81l-6.65.36c-6.1.33-12.03.13-18.31-.04Z"/>
      <circle class="cls-5" cx="421.76" cy="225.06" r="14.11"/>
      <circle class="cls-5" cx="336.69" cy="412.27" r="13.86"/>
      <path class="cls-3" d="M680.31,368.36c-10.08,2.66-20.73,3.49-30.94,1.31,1.98-4.66,4.28-9.74,6-14.38,11.83,5.88,24.31,3.14,34.18-5.15-.08.74-.36,1.82-.76,2.61l-6.8,13.37c-.39.77-1.15,1.69-1.66,2.24Z"/>
      <path class="cls-2" d="M661.48,391.47l5.91-3.79c-1.51,1.53-3.34,2.94-5.91,3.79Z"/>
    </g>
  </g>
</svg>