<svg xmlns="http://www.w3.org/2000/svg" id="Layer_1" version="1.1" viewBox="0 0 405 268.5"><defs><style>.st0{fill:#fcfcfc}</style></defs><path d="m138.07 217.2-13.47 3.7-6.12 1.41-11.49 3.42-9.35 2.63-10.89 3.36c-6.28 1.94-12.25 4.66-18.74 5.76-3.51.59-5.97-3.01-7.4-5.65-2.64-4.92-1.52-10.38 2.91-13.74 4.08-3.09 8.67-5.09 13.59-6.6l16.57-5.1 17.05-4.71 33.04-8.21c18.68-4.64 36.96-8.23 55.94-11.29l21.91-3.53 24.02-3.74 6.74-.68c5.06-.51 8.79-1 14.22-1.54l7.49-.74 6.72-.79c3.47-.41 6.87.23 10.36-.24 1.98-.27 3.93-1.09 6-.66 2.47.52 4.54-.67 6.84-.67l34.31-.03c-3.01 0 12.8 1.29 11.45 1.22 4.97.28 9.27 1.87 13.19 4.85 1.95 1.49 4.33 2.78 5.13 5.45.72 2.42-1.03 5.84-3.49 6.33-2.06.41-3.67-1.06-5.52-1.12-.23 0-13.44-1.66-14.02-1.67-9.55-.14-18.84-.63-28.41.06l-10.48.75-9 .73-8.15.78-6.03.69c-3.28.38-6.43.93-9.75 1.41l-28.11 4.04-8.85 1.66-14.76 3.16-20.79 4.02c-9.93 1.92-19.4 4.22-29.16 6.71l-20.91 5.34-12.57 3.22h-.02Z" class="st0"/><path d="M235.58 200.82c.89 1.41 1.83 2.38 2.99 3 .94 3.67 5.11 4.37 3.39 11.6-.89 3.73-2.95 12.36-5.84 14.41-1.21.86-2.01 1.61-2.78 2.49-2.35.09-4.31 2.16-6.72 3.02-.89-.04-.98.49 0 1.02 2.04-2 4.86-1.95 6.72-4.05 1.79-.07 2.53-.91 3.86-1.35 2.21-.72 6.56 5.38 5.8 7.25-2.54 6.23-6.66 11.71-11.87 15.85-3.47 2.76-9.3 7.57-13.63 7.82-3.46.19-7.41-6.43-7.41-6.71 0-.92.54-1.52.63-2.64-1.48.93-1.54 2.52-3.01 3.79-2.74-.49-5.35.66-8.02.66-11.86 0-6.19 2.19-15.01-.65-.89-1.72-2.63-1.9-5.25-3.6 1.19 1.65 2.97 2.87 5.25 3.6 1.38 2.68-1.31 8.86-3.01 10.16-3.54 2.7-11.41-.76-15.49-2.88-5.79-3.02-11.7-5.87-16.12-10.88-1.61-1.83.35-7.77 1.54-8.21.76-.28 1.47.16 2.43-.61-3.25-.17-7.19-5.97-8.63-8.95s-3.25-5.65-4.99-8.53c-.77-1.27-.93-2.79-2.45-4.23 9.31-4.04 20.65-5.68 30.85-7.78 2.49 5.29 9.32 7.9 9.13 10.41-1.1 1.11-1.71 2.57-2.49 4.31-.71.46-.88 1.68.08 1.44.72-2.46 2.23-3.51 2.4-5.75 1.61-1.62 3.21-1.37 5.24-1.61 7.28-.84 15.02-2.93 19.46.11-.35-.95 10.31 10.28 11.13 10.43-2.26-3.39-5.71-5.54-8.21-8.83-.81-1.07-1.81-.84-2.92-1.6-.42-1.15-.54-2.21-.16-3.11l6.42-15.16c7.17-2.45 14.01-3.33 21.25-4.45 2-.31 3.91-1.08 5.43.21h.01Zm-63.46 38.33c1.3-2.38 2.4-4.66 2.67-7.64-1.3 2.38-2.4 4.66-2.67 7.64Zm52.98-2.7c0-.21-.17-.37-.37-.37s-.37.17-.37.37.17.37.37.37.37-.17.37-.37Zm-2.18.69c-1.15-.55-1.98-.55-3.12 0 .87.72 2.26.72 3.12 0Zm-4.51.8c-.95-.69-1.94-.57-2.25.03 1.4-2.74-2.6 6.43-.26 3.41.24-1.91 1.19-2.8 2.51-3.44Zm-43.5 11.49c-6.03-6.75-2.48-3.5-3.33-9.66-.82 1.65-.42 3.65-1.45 4.96-3.36.6-6.4-.04-9.45.68 10.21 1.82 6.86-2.49 14.24 4.02h-.01Zm40.56-6.61c0-.26-.21-.48-.47-.48s-.47.21-.47.48.21.48.47.48.47-.21.47-.48Zm-53.44 2.42c-1.15-.55-7.68-1.58-8.83-1.03.87.72 7.96 1.75 8.83 1.03Zm51.32.51-2.84 5.7.9.45 2.84-5.7-.9-.45Zm-34.99 6.77c-.26-1.35-.94-1.87-1.92-2.14.47 1.13 1.25 1.52 1.92 2.14Zm59.7-50.02c-.31-1.23-1.75-2.04-2.99-3-1.2-1.55 8.75-2.55 9.63-2.59 2.77-.12 4.11 6.24 4.38 8.58-2.1 1.73-4.93 2.05-7.54 1.09-.81-1.76-1.68-3.12-3.49-4.08Zm-47.91-75c-.44-.17-.62.24-.72.89-.09.56.45.81.72-.89 5.92-8.58 16.19-22.33 27.59-14.12 1.55 1.11 3.34 2.2 4.32 3.89 1.2 2.06-2.88 10.26-4.05 13.32l-4.6 12.01c-1.13 2.96-5.56 13.67-3.1 15.32.55.37 2.07.77 2.82.07 5.21-4.84 11.77-11.64 13.47-18.62.66-2.74 6.88-19.41 8.31-23.23l4.22-11.29-9.73 2.08c-3.6.77-7.51.27-10.21-2.48-1.06-1.08-1.59-2.77-1.23-4.12.29-1.09 1.69-2.16 3.17-2.56l18.36-4.9c1.48-.39 4.46-.78 5.11-2.31l6.89-16.26c1.27-3.01 4.02-3.84 6.99-2.43 1.73.82 8.27 4.2 7.07 6.61l-4.29 8.65c-.47.94.4 1.75 1.32 1.39 3.42-1.33 28.8-5.72 30.96-2.69 1.02 1.43 1.13 7.46-.25 7.64l-8.76 1.1c-2.57.32-26.81 5.81-27.78 6.7-1.9 1.73-2.65 5.12-3.62 7.55l-9.79 24.73c-1.84 4.65-3.19 9.22-4.74 14.07-.62 1.94-1.25 5.14.61 6.58 3.05 2.36 12.25-8.97 12.63-10.99 2.14-11.51 6.06-22.21 13.28-31.3 4.66-5.86 11.41-11.79 19.42-12.09 6.77-.26 12.41 5.75 11.68 12.47-1.08 9.95-6.62 18.13-14.53 23.65-9.15 6.39-11.64 2.19-14.15 3.88-2.97 2-1.52 9.56 2.56 11.58 9.36 4.64 21.06-13.15 25.54-20.24 4.95-7.84 9.34-15.75 11.94-24.78.51-1.77-.31-3.17-1.24-4.54-5.06-7.44 2.56-18.46 6.75-19.79 4.41-1.4 8.1 3.96 7.44 7.85l-1.08 6.3 11.4 5.87c2.25 1.16 4.36 2.61 6.23 4.28-.68 4.08-2.18 7.34-3.83 10.78l-8.25 17.2c-1.44 2.99-4.05 11.81-1.21 12.63 3.19.91 15.34-15.49 17.22-20.38 3.38-8.77 6.45-17.12 12.44-24.48 4.03-4.96 8.38-9.44 14.54-11.7 7.43-2.73 11.51-.34 17.27 4.12 1.15-.99 1.42-3.22 2.78-3.49 2.99-.59 12.27 4.12 10.09 8.67l-7.28 15.15c-1.66 3.45-13.11 29.26-3.9 28.2 2.02-.23 4.55-2.2 5.77-3.73l3.36-4.21 6.18-8.86c1.44 4.62-.2 8.8-2.23 12.81-3.03 6-7.83 10.89-14.02 13.71-4.04 1.84-9.28 1.24-12.23-2.21-4.11-4.8-3.66-10.93-2.46-17.26-2.48 2.44-3.7 5.37-5.77 7.94-4.17 5.17-12.52 14.53-20.03 11.22-4.68-2.06-6.48-7.81-6.61-12.99-4.39 7.64-14 21.19-24.72 17.58-8.68-2.92-7.29-14.17-3.84-21.56l5.24-11.23c2.25-4.81 3.92-9.48 7.44-14.26-2.9-.87-5.4-1.25-8.11-1.74l-5.41 12.14-5.42 10.33c-1.88 3.59-3.73 7.1-6.19 10.27l-7.2 9.27c-1.94 2.5-3.79 4.56-6.33 6.47l-5.09 3.82c-4.95 3.72-12.87 4.15-17.89 1.27-4.49-2.57-7.14-6.87-8-12.02-4.46 6.52-11.49 15.41-19.09 16.01-3.21.26-6.32-.64-8.24-2.7-2.13-2.3-2.43-5.2-2.37-8.8l-6.44 7.91c-3.28 4.03-7.64 7.33-13.13 7.83-3.88.35-7.82-2.52-9.17-5.99-1.46-3.74-1.39-7.29-.3-11.02 1.36-4.67 2.53-9.24 4.19-13.81 1.5-4.12 3-7.99 4.26-12.2.41-1.38 1.89-2.3.95-4.17-2.78 2.49-10.39 11.03-12.22 13.96-6.82 10.88-10.87 22.84-15.24 34.92-.68 1.88-4.62 2.34-6.19 1.9-2.87-.81-6.59-3.04-6.41-6.42.42-7.57 4.77-18.17 7.76-26.64-2.01-.34-2.87 1.57-4.4 2.38-2.32 1.22-4.57 2.4-5.44 5.09-1.48 4.62-2.62 9.38-5.26 13.47l-5.85 9.08c-1.38 2.14-3.26 3.22-4.95 4.87-6.77 6.62-17.88 9.98-24.41 2.11-2.4-2.9-3.25-6.33-4.34-9.7L110.18 178c-2.91 4.25-6.7 8.04-11.72 9.94-3.32 1.26-6.95-.34-9.18-2.42-7.48-6.98-.94-24.66 3.19-32.77 2.2-4.32 3.86-8.58 5.82-13.12-2.83-.1-4.71 0-7.24-1.07-.98 1.84-2.07 3.53-2.68 5.55-1.74 5.77-4.44 10.8-7.08 16.18-3.1 6.32-6.15 12.39-10.78 17.71-3.11 3.58-10.09 13.68-15.09 7.91-.74-.85-1.96-.77-2.76-2.49 13.45-4.72 26.48-35.93 30.43-48.97-8.73-3.56-2.37-16.15 1.58-20.25 1.94-2.01 4.15-1.84 6.55-.94 3.34 1.26 5.67 3.69 4.42 7.43l-3.11 9.26c15.11 5.67 11.15-4.7 16.5.74 3.63 3.69 6.82 4.23 5.03 6.86-3.37 4.94-6.43 9.81-8.71 15.35-1.89 4.59-9.85 20.61-5.55 23.63 2.02 1.28 5.3-2.3 6.54-3.8l4.14-5.02c2.03-2.46 4.77-5.35 5.56-8.5l3.95-15.66c2.72-10.78 19.83-34.07 36.39-25.74 2.1 1.06 3.99 3.34 5.21 5.21 2.74 4.22 2.65 8.95 3.42 13.94 9.86-8.47 11.22-8.14 14.12-21.15 1.05-4.71 7.77-1.16 10.5.14 5.7 2.72.05 7.93.47 11.57l.05-.02Zm163.14 13.24c3.43 1.26 8.65-6.07 10.7-8.64 7.12-8.91 13.51-18.31 17.04-29.43.57-1.81-2.36-3.24-3.62-3.56s-3.31.33-4.65 1.41c-5.97 4.82-9.71 9.64-13.4 16.47-2.1 3.89-11.01 21.92-6.07 23.74Zm-68.11-31.2c-1.15-.04-2.84.64-3.54 1.65-4.95 7.12-8.99 14.37-13.1 22.71 9.72.4 22.52-24.18 16.64-24.36Zm-133.31 33.94c5.65-6.6 3.21-20.08-1.63-17.74-6.63 3.21-7.39 13.31-3.63 16.37 1.12.92 4.3 2.5 5.26 1.37Zm-1.11 8.05c-7.03.78-13.13-3.63-14.06-10.69-1.79 5.49-10.92 28.42-1.87 30.81 5.6 1.47 13.98-15.63 15.92-20.12Z" class="st0"/><path d="M12.28 204.94c1.35-12.21 9.6-33.74 13.8-45.79-2.16-.68-5.8 2.77-9.38.99-2.41-1.2-3.88-5.02-2.94-7.49 1.65-4.34 13.18-5.1 17.24-7.67 1.88-1.19 2.1-4.66 2.9-6.72l12.06-30.93c1.22-1.05-.1-2.34-1.2-1.1-8.5 1.14-19.01 5.63-25.58 10.45-3.04 2.23-5.19 4.67-7.3 7.76-3.68 5.36-2.75 11.42 2.69 15.9C4.42 139.55.4 125.86 2.53 118.68c3.81-12.84 15.72-18.82 26.99-23.8 16.14-7.13 30.28-7.83 45.02-11.27l14.57-3.41 8.3-2.15c4.81-1.24 9.2-2.56 13.19-5.38 2.03 12.2-6.03 22.86-17.93 24.69l-7.24 1.11-6.8.65c-3.73.36-15.42 2.08-18.74 3.92 1.2 1.02 2.19 2.99 1.45 4.89-3.65 9.42-6.86 18.65-9.92 28.28-.45 1.41-1.75 2.27-1.12 4.05 2.42-1.42 5.12-1.26 7.8-1.84l12.24-2.66c2.54 4.15 2.62 12.51-3.07 14.08l-4.75 1.31c-5.3 1.46-12.08 1.26-16.92 4.22-3 4.18-3.77 10.79-5.56 15.89-3.11 8.87-10.64 33.99-11.63 42.48-.11.92.21 1.74-.27 2.32-2.19 2.66-16.8-2.45-15.85-11.12h-.01ZM150.44 90.6l-6.96 6.68c-3.13 3.01-7.47 5.02-11.9 6.02-3.33.75-7.19-.55-10.02-2.4-2.59-1.69-4.35-6.08-2.77-8.88 4.39-7.8 14.78-9.69 22.88-10.8 3.33-4.29 6.07-8.77 7.82-14.06.75-2.26-10.33.92-16.19-8.7-1.91-3.14-.83-7.26.99-10.4l4.06 3.83c3.85 3.64 9.62 3.99 15.12 3.52l6.98-16.16c3.73-8.65 14.69-28.2 23.46-32.1 3.41-1.52 7.26-2.98 11.05-1.34 1.84.8 3.97 2.86 4.8 4.73 3.13 7.13-1.79 17.27-5.47 23.56-5.51 9.43-15.14 19.3-25.41 23.34-1.14.45-1.8 1.95-2.19 3.05-2.47 6.96-5.32 13.26-8.75 19.83-.37.71 1.59 1.63 2.28 1.53 5.03-.68 9.95.88 14.69 2.36s10.15 2.64 14.12 6.2c4.42 3.97-3.94 11.64-8.59 11.77-8.05-7.04-19.57-9.39-30-11.57Zm40.08-75.51c-3.49 2.94-5.74 6.04-7.65 9.91l-8.92 18c-.81 1.63-1.57 3.07-1.82 5.14 7.6-2.04 26.48-27.66 18.39-33.05Zm-56.99 79.47c1.86-.99 4.49-3.43 3.11-4.87-3.31-1.73-10.32.69-10.71 4.68.74 2.84 5.41 1.35 7.6.19Z" class="st0"/><path d="M243.16 61.47c1.02 6.49-5.7 13.43-9.36 17.55-4.24 4.77-10.5 7.25-16.74 5.07-5.91-2.07-5-8.72-5.46-13.84-4.93 6.98-12.27 16.88-21.35 14.15-2.77-.83-5.96-3.41-6.66-7.3-1.47-8.07 2.59-14.75 5.75-21.59 2.68-5.81 6.09-10.5 10.67-14.9 6.26-6.02 15.73-10.45 22.32-1.82 1.21-1.69 1.71-3.85 3.71-3.52 3.04.5 5.88 1.95 8.49 3.62 1.05.67.68 3.18.09 4.1-1.53 2.4-2.12 4.84-3.33 7.25-2.33 4.63-8.89 18.64-8.11 23.2.37 2.16 3.09 2.88 5.08 2.2 6.97-2.39 9.57-9.3 14.91-14.17Zm-45.98 15.34c4.12-2.08 7.09-4.49 9.45-7.83 5.72-7.15 10.15-15.07 12.82-23.85-.89-2.4-3.55-3.19-5.56-1.81-8.9 6.11-15.01 17.5-17.86 27.81-.86 1.92-1.11 4.3 1.15 5.69Z" class="st0"/></svg>