<svg xmlns="http://www.w3.org/2000/svg" id="Layer_1" version="1.1" viewBox="0 0 405 268.5"><defs><style>.st0{fill:#fcfcfc}</style></defs><path d="m138 217.2-13.4 3.7-6.1 1.4-11.5 3.4-9.4 2.7-10.8 3.3c-6.3 2-12.3 4.7-18.8 5.8-3.5.6-6-3-7.4-5.7-2.6-4.9-1.5-10.4 3-13.7q6-4.5 13.5-6.6l16.6-5.1 17-4.7 33-8.2c18.8-4.7 37-8.3 56-11.3l22-3.6 24-3.7 6.7-.7 14.2-1.5 7.5-.8 6.7-.7c3.5-.5 6.9.2 10.4-.3 2-.3 3.9-1 6-.6 2.4.5 4.5-.7 6.8-.7h34.3c-3 0 12.8 1.2 11.5 1.2q7.4.4 13.2 4.8c2 1.5 4.3 2.8 5 5.5.8 2.4-1 5.8-3.4 6.3-2 .4-3.7-1-5.5-1.1l-14-1.7c-9.6-.1-18.9-.6-28.4 0l-10.5.8-9 .8-8.2.7-6 .7-9.8 1.4-28 4-9 1.7-14.7 3.2-20.8 4q-14.7 3-29.1 6.7l-21 5.4z" class="st0"/><path d="M235.6 200.8a8 8 0 0 0 3 3c1 3.7 5 4.4 3.4 11.6-1 3.7-3 12.4-5.9 14.4a15 15 0 0 0-2.8 2.5c-2.3.1-4.3 2.2-6.7 3q-1.4.1 0 1c2-2 4.9-1.9 6.7-4 1.8 0 2.6-.9 3.9-1.3 2.2-.8 6.6 5.3 5.8 7.2a39 39 0 0 1-11.9 15.9c-3.4 2.7-9.3 7.5-13.6 7.8-3.5.2-7.4-6.4-7.4-6.7 0-1 .5-1.6.6-2.7-1.5 1-1.5 2.6-3 3.8-2.7-.5-5.3.7-8 .7-11.9 0-6.2 2.2-15-.7-1-1.7-2.6-1.9-5.3-3.6a10 10 0 0 0 5.3 3.6c1.4 2.7-1.3 8.9-3 10.2-3.6 2.7-11.4-.8-15.5-2.9-5.8-3-11.7-5.9-16.1-10.9-1.6-1.8.3-7.7 1.5-8.2.8-.3 1.5.2 2.4-.6-3.2-.2-7.2-6-8.6-9s-3.2-5.6-5-8.5c-.8-1.2-1-2.8-2.4-4.2 9.3-4 20.6-5.7 30.8-7.8 2.5 5.3 9.3 8 9.1 10.4q-1.4 1.7-2.4 4.3c-.8.5-1 1.7 0 1.5.8-2.5 2.3-3.5 2.4-5.8 1.6-1.6 3.2-1.3 5.3-1.6 7.3-.8 15-3 19.4.1-.3-1 10.3 10.3 11.2 10.5-2.3-3.4-5.7-5.6-8.2-8.9-.9-1-1.9-.8-3-1.6q-.7-1.7-.1-3l6.4-15.2c7.2-2.5 14-3.4 21.2-4.5 2-.3 4-1 5.5.2M172 239.1q2.1-3.3 2.7-7.6a19 19 0 0 0-2.7 7.6m53-2.7a.4.4 0 1 0-.7 0 .4.4 0 0 0 .7 0m-2.2.7q-1.5-.7-3.1 0c.9.8 2.3.8 3.1 0m-4.5.8c-1-.7-2-.5-2.2 0 1.4-2.7-2.6 6.5-.3 3.5a4 4 0 0 1 2.5-3.5M175 249.4c-6-6.7-2.5-3.5-3.3-9.6-.8 1.6-.4 3.6-1.5 5-3.3.5-6.4-.1-9.4.6 10.2 1.8 6.8-2.5 14.2 4m40.6-6.6q0-.4-.5-.5t-.5.5.5.5q.6-.1.5-.5m-53.5 2.4c-1.1-.5-7.6-1.5-8.8-1 .9.7 8 1.8 8.8 1m51.4.5-2.9 5.7 1 .5 2.7-5.7zm-35 6.8q-.5-1.9-2-2.1c.5 1.1 1.3 1.5 2 2.1m59.7-50c-.3-1.2-1.8-2-3-3-1.2-1.6 8.7-2.6 9.6-2.6 2.8-.1 4.1 6.2 4.4 8.6-2.1 1.7-5 2-7.6 1a8 8 0 0 0-3.5-4Zm-48-75q-.6-.2-.7.9c0 .5.5.8.8-.9 5.9-8.6 16.1-22.3 27.5-14.1 1.6 1 3.4 2.2 4.4 3.9 1.2 2-3 10.2-4 13.3l-4.7 12c-1.1 3-5.6 13.7-3 15.3.5.4 2 .8 2.7 0 5.2-4.8 11.8-11.6 13.5-18.5.7-2.8 6.9-19.4 8.3-23.3l4.2-11.3-9.7 2.1c-3.6.8-7.5.3-10.2-2.5-1-1-1.6-2.7-1.2-4 .3-1.2 1.7-2.2 3.1-2.6l18.4-5c1.5-.3 4.5-.7 5.1-2.2l6.9-16.3c1.3-3 4-3.8 7-2.4 1.7.8 8.3 4.2 7 6.6l-4.2 8.6c-.5 1 .4 1.8 1.3 1.4 3.4-1.3 28.8-5.7 31-2.7 1 1.5 1 7.5-.3 7.7l-8.8 1c-2.5.4-26.8 5.9-27.8 6.8-1.8 1.7-2.6 5-3.6 7.5l-9.8 24.7q-2.6 7-4.7 14.1c-.6 2-1.2 5.2.6 6.6 3 2.4 12.3-9 12.6-11 2.2-11.5 6.1-22.2 13.3-31.3 4.7-5.9 11.4-11.8 19.4-12 6.8-.3 12.5 5.7 11.7 12.4a33 33 0 0 1-14.5 23.6c-9.2 6.4-11.6 2.2-14.2 4-3 2-1.5 9.5 2.6 11.5 9.4 4.6 21-13.2 25.5-20.2 5-7.9 9.4-15.8 12-24.8.5-1.8-.3-3.2-1.3-4.6-5-7.4 2.6-18.4 6.8-19.8 4.4-1.4 8 4 7.4 7.9l-1 6.3 11.4 5.9a30 30 0 0 1 6.2 4.2c-.7 4.1-2.2 7.4-3.8 10.8l-8.3 17.2c-1.4 3-4 11.8-1.2 12.7 3.2.9 15.3-15.5 17.2-20.4 3.4-8.8 6.5-17.1 12.5-24.5 4-5 8.3-9.4 14.5-11.7 7.4-2.7 11.5-.3 17.3 4.1 1.1-1 1.4-3.2 2.7-3.5 3-.6 12.3 4.1 10.1 8.7l-7.2 15.1c-1.7 3.5-13.2 29.3-4 28.2 2-.2 4.6-2.2 5.8-3.7l3.4-4.2 6.2-8.9c1.4 4.7-.2 8.8-2.3 12.9q-4.6 9.2-14 13.7c-4 1.8-9.3 1.2-12.2-2.2-4.1-4.8-3.7-11-2.5-17.3-2.5 2.4-3.7 5.4-5.7 8-4.2 5.1-12.6 14.5-20 11.2-4.8-2.1-6.6-7.9-6.7-13-4.4 7.6-14 21.2-24.7 17.5-8.7-2.9-7.3-14.1-3.8-21.5l5.2-11.2c2.2-4.9 4-9.5 7.4-14.3q-4.2-1.2-8-1.7l-5.5 12.1-5.4 10.3a67 67 0 0 1-6.2 10.3l-7.2 9.3c-2 2.5-3.8 4.5-6.3 6.4l-5.1 3.9c-5 3.7-12.9 4.1-18 1.2a16 16 0 0 1-8-12c-4.4 6.5-11.4 15.4-19 16a10 10 0 0 1-8.2-2.7c-2.2-2.3-2.5-5.2-2.4-8.8l-6.4 8c-3.3 4-7.7 7.3-13.2 7.8-3.9.3-7.8-2.6-9.1-6a16 16 0 0 1-.3-11q1.8-7 4.1-13.9 2.3-6 4.3-12.2c.4-1.3 1.9-2.3 1-4.1-2.8 2.5-10.4 11-12.3 14-6.8 10.8-10.8 22.8-15.2 34.8-.7 2-4.6 2.4-6.2 2-2.9-.9-6.6-3-6.4-6.5.4-7.5 4.8-18.1 7.8-26.6-2-.4-3 1.6-4.4 2.4-2.4 1.2-4.6 2.4-5.5 5-1.5 4.7-2.6 9.4-5.2 13.5l-5.9 9.1c-1.4 2.1-3.3 3.2-5 4.9-6.7 6.6-17.8 10-24.4 2-2.4-2.8-3.2-6.2-4.3-9.6l-7 10.1c-2.8 4.3-6.6 8-11.6 10-3.4 1.2-7-.4-9.2-2.5-7.5-7-1-24.6 3.2-32.7 2.2-4.4 3.8-8.6 5.8-13.2-2.8 0-4.7 0-7.3-1q-1.6 2.6-2.6 5.5c-1.8 5.8-4.5 10.8-7.1 16.2A79 79 0 0 1 70.5 178c-3.1 3.6-10 13.7-15 8-.8-1-2-.9-2.8-2.6 13.4-4.7 26.4-36 30.4-49-8.7-3.5-2.4-16.1 1.6-20.2 2-2 4.1-1.8 6.5-1 3.4 1.3 5.7 3.8 4.4 7.5l-3 9.3c15 5.6 11-4.7 16.4.7 3.7 3.7 6.8 4.2 5 6.9q-5.1 7.2-8.7 15.3c-1.8 4.6-9.8 20.6-5.5 23.6 2 1.3 5.3-2.3 6.5-3.8l4.2-5c2-2.4 4.8-5.3 5.5-8.5l4-15.6c2.7-10.8 19.8-34.1 36.4-25.8 2 1 4 3.4 5.2 5.2 2.7 4.2 2.6 9 3.4 14 9.9-8.5 11.2-8.2 14.1-21.2 1-4.7 7.8-1.1 10.5.2 5.7 2.7 0 7.9.5 11.5m163.2 13.2c3.4 1.3 8.6-6 10.7-8.6 7.1-9 13.5-18.3 17-29.4.6-1.8-2.3-3.3-3.6-3.6s-3.3.3-4.6 1.4a50 50 0 0 0-13.4 16.5c-2.1 3.9-11 22-6.1 23.7Zm-68.1-31.2c-1.2 0-2.9.7-3.6 1.7-5 7.1-9 14.4-13 22.7 9.7.4 22.5-24.2 16.6-24.4m-133.3 34c5.6-6.6 3.2-20.1-1.7-17.8-6.6 3.2-7.4 13.3-3.6 16.4 1.1 1 4.3 2.5 5.3 1.4m-1.1 8c-7 .8-13.2-3.6-14.1-10.7-1.8 5.5-11 28.5-1.9 30.8 5.6 1.5 14-15.6 16-20Z" class="st0"/><path d="M12.3 205c1.3-12.3 9.6-33.8 13.8-45.8-2.2-.7-5.8 2.7-9.4 1-2.4-1.3-3.9-5-3-7.5 1.7-4.4 13.2-5.1 17.3-7.7 1.9-1.2 2.1-4.7 2.9-6.7l12-31c1.3-1 0-2.3-1.1-1-8.5 1-19 5.6-25.6 10.4q-4.3 3.3-7.3 7.7c-3.7 5.4-2.8 11.5 2.7 16-10.2-.8-14.2-14.5-12-21.7 3.7-12.9 15.7-18.8 27-23.8 16-7.1 30.2-7.8 45-11.3L89 80.2l8.3-2.1c4.8-1.3 9.2-2.6 13.2-5.4 2 12.2-6 22.8-18 24.7l-7.2 1-6.8.7a80 80 0 0 0-18.7 4c1.2 1 2.2 3 1.4 4.8q-5.3 14-9.9 28.3c-.4 1.4-1.7 2.3-1.1 4 2.4-1.4 5.1-1.2 7.8-1.8l12.2-2.6c2.6 4.1 2.7 12.5-3 14l-4.8 1.4c-5.3 1.4-12 1.2-16.9 4.2-3 4.2-3.8 10.8-5.6 15.9-3 8.8-10.6 34-11.6 42.4-.1 1 .2 1.8-.3 2.4-2.1 2.6-16.8-2.5-15.8-11.2M150.4 90.5l-7 6.7c-3 3-7.4 5-11.8 6-3.4.8-7.2-.5-10-2.4-2.6-1.7-4.4-6-2.8-8.9 4.4-7.8 14.8-9.7 22.9-10.8q5-6.3 7.8-14c.7-2.3-10.3.9-16.2-8.7-2-3.2-.8-7.3 1-10.4l4 3.8c3.9 3.6 9.7 4 15.2 3.5l7-16.2c3.7-8.6 14.6-28.1 23.4-32 3.4-1.6 7.3-3 11-1.4 1.9.8 4 2.9 4.9 4.7 3 7.2-1.8 17.3-5.5 23.6a57 57 0 0 1-25.4 23.3c-1.2.5-1.8 2-2.2 3-2.5 7-5.3 13.3-8.8 20-.3.6 1.6 1.5 2.3 1.4 5-.6 10 1 14.7 2.4s10.2 2.6 14.1 6.2c4.5 4-4 11.6-8.6 11.8-8-7-19.5-9.4-30-11.6m40.1-75.5A29 29 0 0 0 183 25l-9 18c-.8 1.6-1.5 3-1.8 5.1 7.6-2 26.5-27.6 18.4-33m-57 79.5c1.9-1 4.5-3.5 3.1-5-3.3-1.6-10.3.8-10.7 4.8.8 2.8 5.4 1.3 7.6.2" class="st0"/><path d="M243.2 61.5c1 6.5-5.7 13.4-9.4 17.5-4.2 4.8-10.5 7.3-16.7 5-6-2-5-8.6-5.5-13.7-5 7-12.3 16.8-21.3 14.1-2.8-.8-6-3.4-6.7-7.3-1.5-8 2.6-14.7 5.7-21.6q4-8.5 10.7-14.9c6.3-6 15.7-10.4 22.3-1.8 1.2-1.7 1.7-3.9 3.7-3.5 3 .5 6 2 8.5 3.6 1 .7.7 3.2.1 4-1.5 2.5-2.1 5-3.3 7.3-2.3 4.7-8.9 18.7-8.1 23.2.4 2.2 3 3 5 2.2 7-2.3 9.6-9.3 15-14.1Zm-46 15.3q6-3 9.4-7.8 8.8-10.7 12.9-23.9a3.6 3.6 0 0 0-5.6-1.8A51 51 0 0 0 196 71.1c-.8 2-1 4.3 1.2 5.7" class="st0"/></svg>