<svg xmlns="http://www.w3.org/2000/svg" id="Layer_2" data-name="Layer 2" viewBox="0 0 1158 585.1"><defs><style>.cls-4{fill:#fff}</style></defs><g id="Layer_1-2" data-name="Layer 1"><path d="M420 249c2-14 32-18 42-31l-26 9q-15 6-32 8l-2-17c-2-17 11-29 28-28 5 0 15 0 19-3l28-26q11-5 23-6l-4-22q-28 22-57 40c-31 18-67 23-100 10q-10-5-12-14 1-12 13-14c34 1 28 6 64-11 21-28 77-84 115-56q15-10 35-11l59-4q1-12 9-20l12-11q12-13 29-21l19-6q16-7 31-8l11-7h25q30 24 48 58c5 10-2 21-9 26-18 12-26-9-46-11q-12 11-12 25 24 5 44 13c9 4 13 16 19 24q11 10 12 25v30c-1 12 20 16 19 31q-2 6-8 11c-24 14-33-11-50-27q-20-18-44-30c-11-5-26-1-34-14-45 21-64 17-107 4-16-5-3 25-53 47q-29 15-49 39c-7 8-15 11-23 17-5 3-9 11-15 10-15-1-22-20-21-29m20 20 10-13q13-2 20-11 29-32 67-49c38-17 21-50 46-42 41 14 66 17 107-6 29 31 18-7 83 50l15 15c3 3 6 11 11 12q10 1 15-6c-26-30-20-17-48-43-14-14-32-21-42-39 12-6 30-7 41 2q20 15 12 39 7 5 17 7 2-16 0-31l-15-21c-3-5-7-13-12-14l-38-11c-21-6-1-40 9-45 28 0 34 20 44 13q9-8 3-18c-16-23-18-31-41-48l-7 4-8-4q-4 7-13 7c-12-1-21 5-31 8l-19 7q-7 3-13 8l-11 10c-11 9-18 12-18 26 0 19-90-2-104 27-31-38-89 23-108 49-12 7-29 13-43 15-11 2-21-4-33 0q9 10 23 12c65 11 100-37 150-66q-2 20 0 37 2 6 0 11c-4 7-19 3-27 10l-25 23c-14 13-38 0-44 15-2 3-1 11 2 14l33-11c14-5 39-33 52-27q-21 47-68 63-3 12 8 21m328-107c-2-12-13-21-26-19q11 12 26 19" style="fill:#060203"/><path d="M440 269q-11-9-8-21 47-16 68-63c-13-6-38 22-52 27l-33 11c-3-3-3-11-2-14 6-15 30-2 44-15l25-23c8-7 23-3 27-10q2-5 0-11-2-17 0-37c-50 29-85 77-150 66q-14-2-23-12c12-4 22 2 33 0 14-2 31-8 43-15 19-26 77-87 108-49 14-29 104-9 104-27 0-14 7-17 18-26l11-11 13-7 19-7c10-3 19-9 31-8q9 0 13-7l8 4 7-4c23 17 25 25 41 48q6 10-3 18c-10 7-16-13-44-13-10 5-30 39-9 45l38 11c5 1 9 9 12 13l15 21q2 16 0 32-10-2-17-7 8-24-12-39c-11-9-29-8-41-2 10 18 28 25 42 38 28 27 22 14 48 44q-5 7-15 6c-5-1-8-9-11-12l-15-15c-65-57-54-19-83-50-41 23-66 20-107 6-25-8-19 29-46 42s-48 27-67 49q-7 9-20 11z" class="cls-4"/><path d="M319 420v-94l-1-27c0-3 6-8 9-8l81 10q26 4 41 25c19 25 17 57-2 82l11 14 19-72c7-28-10-26 3-42 19-1 41 0 58 2 3 0 6 5 7 7l31 127q3-36 1-72l-2-50c0-6 7-12 12-12l49-1c3 0 9 5 9 9l-1 59v85l3 15q13 2 28-3c-14-49-7-98 23-138q23-31 62-39c10-2 54-6 53 12v53q-2 9-8 12c-15 6-17-11-33-21-9-5-18 3-22 11q-19 39-10 81c1 11 3 21 15 28v-49c-1-6-3-16 2-21 15-3 51-10 64-5l3 14 22-90-3-20q0-10 9-13l49-9q11 0 21-4l105-24 26-7 42-13h9q3 2 4 7 21 92 50 182c1 6-3 16-8 17l-48 17c-17 6-13-20-20-32-44 0-12 44-43 51l-133 30c-5 1-12-3-13-6l-7-28c-6-1-20 0-23 6-9 15-1 36-20 39q-18 3-35 4c-8 0-14-2-21 2a83 83 0 0 1-77 0l-15 10-54 2-102 1c-18 0-11-25-20-37-3-5-18-4-23-1-6 6-3 34-14 35-50 3-43-10-62-7q-19 4-39 0l-97-14c-20-3-13-23-21-42-6-4-17-5-24-4l-6 27c-1 2-5 7-7 7q-24-4-47-12c-3-1-5-11-4-15l44-148c8-30-4-34 2-45 1-2 8-3 10-3l44 7q11 3 14 14l23 105zm737-3 36-10 10 36q22-7 43-15-28-92-50-184l-42 12q3 22-3 43l-42 170 33-8 7-35q2-7 8-9m-101 65 44-10-2-170 35-7v-33l-110 26v33l35-9q1 84-2 170m-682-26 9 40q21 7 45 6l-40-157-10-50-44-8 2 19q-12 55-29 108l-19 64 33 7 9-37zm579 6 43-7 11 37 44-10q-29-94-51-190l-44 8c4 14 3 23 0 35q-19 86-45 171 18-1 33-3zm-427-55q23-14 24-41c1-27-17-49-44-52l-73-10v201q38 6 78 8 21 0 35-18 27-51-20-88m384 86 1-85-43 5q2 36-1 68c-2 8-19 5-24 0q-11-12-14-28c-7-32-5-86 23-107q18-12 35 2l14 13v-50c-32-10-65-1-86 25-38 43-42 94-23 147q-28 9-59 6-2-84 1-168l-44 1v201q54-1 104-4l1-30c13 13 23 24 39 27 27 6 56-4 76-23m202-80 25-105q-14 0-26 3zm-481 70 9 38q23 4 45 0-29-100-50-199-22-4-45-1 5 17 0 32l-46 164 33 3 9-39zm414-70 1-85q-12 1-23 7z" style="fill:#040102"/><path d="M809 493a88 88 0 0 1-76 23c-16-3-26-14-39-27l-1 30q-50 4-104 4V322l44-1q-3 84-1 168 31 3 59-6c-19-53-15-104 23-147 21-26 54-35 86-25v50l-14-13q-17-14-35-2c-28 21-30 75-23 107q3 16 14 28c5 5 22 8 24 0q3-32 1-68l43-5zM955 482q3-86 2-170l-35 9v-33l110-26v33l-35 7 2 170zM530 483l-45-2-9 39-33-3 46-164q5-15 0-32 23-3 45 1 21 99 50 199-22 4-45 0zm-8-34c-4-22-7-38-14-57l-15 56z" class="cls-4"/><path d="m522 449-29-1 15-56c7 19 10 35 14 57" style="fill:#060606"/><path d="m852 462-9 41q-15 2-33 3 26-85 45-171c3-12 4-21 0-35l44-8c15 65 32 126 51 191l-44 9-11-37zm37-40c-5-22-7-37-15-55l-14 59q14 0 29-4" class="cls-4"/><path d="M889 422q-15 4-29 4l14-59c8 18 10 33 15 55" style="fill:#040304"/><path d="M1056 417q-6 3-8 9l-7 35-33 8 42-170q6-21 3-43l42-12q22 92 50 184-21 8-43 15l-10-36zm30-42-14-54c-7 23-11 41-15 62z" class="cls-4"/><path d="m1086 375-29 8c4-21 8-39 15-62z" style="fill:#050505"/><path d="M425 407q47 37 20 88-14 18-35 18-39-2-78-8V304l73 10c27 3 45 25 44 52q-1 26-24 41m-27-60q-11-10-25-6l1 47c4 4 14 4 19 1 16-8 15-32 5-42m3 85q-12-11-28-9v56q13 8 25 0c15-9 15-35 3-47" class="cls-4"/><path d="M401 432c12 12 12 38-3 47q-12 7-25 0v-56q16-2 28 9m-5 23q2-14-10-17v31q11 0 10-14" style="fill:#050203"/><path d="M398 347c10 10 11 34-5 42-5 3-15 3-19-1l-1-47q14-5 25 6m-11 30c7-6 8-17-1-21q-2 11 1 21" style="fill:#050304"/><path d="M109 503c21 35 62 29 93 15 9 1 17 14 18 24a98 98 0 0 1-71 43q-48 2-82-30-49-46-61-114-16-82 10-161 19-51 64-80 60-20 116 10 10 4 12 16l-1 64c0 3-6 6-9 6-10 0-18-17-36-33-11-9-28-12-40-5q-22 15-29 41-19 76-4 151 6 28 20 53m-9 6c-33-53-33-144-21-204q5-24 18-44c15-19 40-24 62-12 15 8 24 20 37 34v-61q-28-15-58-18c-64-6-101 45-116 100S8 414 24 468c13 46 44 90 92 103 32 8 63-3 85-26 4-4 8-11 2-15-35 18-80 15-103-21" style="fill:#050202"/><path d="M100 509c23 36 68 39 103 21 6 4 2 11-2 15a87 87 0 0 1-85 26c-48-13-79-57-92-103q-24-82-2-164c22-82 52-106 116-100q30 3 59 18l-1 61c-13-14-22-26-37-34-22-12-47-7-62 12q-13 20-18 44c-12 60-12 151 21 204" class="cls-4"/><path d="m273 456-44-8-9 37-33-7 19-64q17-53 29-108l-2-19 44 8 10 50 40 157q-25 1-45-6zm-8-35-13-59-15 54z" class="cls-4"/><path d="m265 421-28-5 15-54z" style="fill:#040404"/></g></svg>